<svg viewBox="0 0 25 24" fill="none" xmlns="http://www.w3.org/2000/svg">
  <g clip-path="url(#clip0_4625_43)">
    <path d="M24.7179 18.1409L23.628 22.8659C23.4749 23.5339 22.8879 24.0012 22.2002 24.0012C10.3741 24.0003 0.755371 14.3815 0.755371 2.55496C0.755371 1.86778 1.22267 1.27996 1.89068 1.12762L6.61568 0.0377759C7.30381 -0.121693 8.00693 0.235495 8.29287 0.887151L10.4735 5.97309C10.7284 6.57215 10.5565 7.27012 10.0526 7.68168L7.52881 9.70809C9.12162 12.9528 11.7597 15.5909 15.0054 17.1847L17.0716 14.6628C17.4789 14.1575 18.1821 13.9826 18.7812 14.2421L23.8671 16.4222C24.4788 16.744 24.8772 17.4565 24.7179 18.1409Z" fill="#59308C"/>
  </g>
  <defs>
    <clipPath id="clip0_4625_43">
      <rect width="24" height="24" fill="white" />
    </clipPath>
  </defs>
</svg>
