<svg width="387" height="371" viewBox="0 0 387 371" fill="none" xmlns="http://www.w3.org/2000/svg">
<g clip-path="url(#clip0_4458_10)">
<path d="M34.0459 353.99C34.4585 354.008 34.8669 353.901 35.2158 353.682C35.5648 353.463 35.8373 353.144 35.9966 352.766C36.156 352.389 36.1943 351.972 36.1065 351.572C36.0187 351.173 35.8089 350.809 35.5057 350.532L35.3676 349.988C35.3858 349.944 35.4041 349.901 35.4225 349.858C35.8381 348.885 36.5345 348.056 37.4243 347.474C38.314 346.893 39.3575 346.585 40.4235 346.589C41.4895 346.593 42.5306 346.908 43.4159 347.497C44.3013 348.085 44.9915 348.919 45.3998 349.894C47.0316 353.787 49.1092 357.687 49.6208 361.803C49.8461 363.623 49.751 365.467 49.3399 367.255C53.1726 358.973 55.1629 349.972 55.1757 340.861C55.1765 338.575 55.0483 336.291 54.7916 334.019C54.5795 332.156 54.2852 330.307 53.9087 328.471C51.8544 318.509 47.4439 309.171 41.0391 301.226C37.9393 299.55 35.4324 296.974 33.8563 293.844C33.2853 292.718 32.8817 291.517 32.6581 290.278C33.0078 290.323 33.9766 285.048 33.7129 284.724C34.2002 283.992 35.0724 283.627 35.6046 282.913C38.2516 279.358 41.8984 279.979 43.8022 284.809C47.8692 286.843 47.9086 290.214 45.4131 293.458C43.8255 295.521 43.6073 298.313 42.2143 300.521C42.3576 300.703 42.5067 300.879 42.65 301.061C45.2698 304.398 47.5532 307.981 49.4673 311.759C49.0018 307.527 49.5574 303.245 51.0883 299.267C52.6399 295.559 55.5482 292.436 58.1092 289.231C61.1855 285.381 67.4936 287.061 68.0356 291.942C68.0408 291.989 68.046 292.036 68.0509 292.083C67.6705 292.296 67.2982 292.522 66.9339 292.76C66.4762 293.063 66.1215 293.496 65.9163 294.002C65.7112 294.508 65.6651 295.063 65.7842 295.596C65.9033 296.128 66.1819 296.613 66.5836 296.985C66.9853 297.358 67.4913 297.602 68.0353 297.685L68.0911 297.694C67.9555 299.052 67.716 300.398 67.3745 301.72C70.6601 314.306 63.5668 318.89 53.4387 319.096C53.2151 319.209 52.9972 319.323 52.7737 319.431C54.6968 324.829 55.9031 330.453 56.3622 336.16C56.6222 339.526 56.6068 342.908 56.3164 346.273L56.3336 346.154C57.0674 342.413 59.0822 339.037 62.0375 336.597C66.427 333.025 72.6285 331.71 77.3639 328.839C77.8672 328.519 78.4524 328.348 79.0505 328.346C79.6486 328.345 80.2346 328.513 80.7394 328.831C81.2442 329.148 81.6468 329.602 81.8997 330.139C82.1526 330.676 82.2453 331.273 82.1667 331.861C82.1604 331.902 82.1539 331.944 82.1473 331.986C81.4414 332.271 80.7541 332.599 80.0893 332.968C79.709 333.181 79.3366 333.406 78.9722 333.645C78.5145 333.948 78.1599 334.381 77.9548 334.887C77.7496 335.393 77.7036 335.948 77.8226 336.481C77.9417 337.013 78.2203 337.497 78.622 337.87C79.0237 338.243 79.5297 338.487 80.0738 338.57L80.1295 338.579C80.1696 338.584 80.204 338.59 80.2441 338.596C79.0379 341.448 77.3451 344.074 75.2396 346.358C73.1852 357.345 64.3617 358.388 54.9234 355.188H54.9177C53.8821 359.646 52.3817 363.985 50.4405 368.135H34.4467C34.3893 367.959 34.3378 367.777 34.2861 367.601C35.7666 367.693 37.2528 367.606 38.7117 367.34C37.5251 365.898 36.3384 364.444 35.1518 363.002C35.1253 362.975 35.1004 362.946 35.0772 362.916C34.4753 362.178 33.8677 361.446 33.2658 360.708L33.2655 360.707C33.2334 358.444 33.4955 356.186 34.0454 353.99L34.0459 353.99Z" fill="#F2F2F2"/>
<path d="M60.6959 213.109C56.4571 197.864 48.5502 184.879 35.7839 174.89C35.2788 174.117 34.4848 173.574 33.5761 173.381C32.6673 173.187 31.7181 173.358 30.9366 173.857L1.79791 192.493C1.01756 192.993 0.469437 193.78 0.273781 194.68C0.078125 195.58 0.250946 196.52 0.75428 197.295L25.6662 235.513C26.1713 236.286 26.9654 236.829 27.8741 237.023C28.7828 237.217 29.7321 237.046 30.5135 236.547L59.6522 217.911C60.4326 217.41 60.9807 216.624 61.1764 215.724C61.372 214.824 61.1992 213.883 60.6959 213.109Z" fill="#BABABA"/>
<path d="M50.9363 202.995C49.844 194.94 43.1169 186.705 34.9206 178.424C34.4476 177.7 33.704 177.192 32.853 177.01C32.0019 176.829 31.1129 176.989 30.381 177.456L5.33876 193.473C4.60791 193.941 4.09454 194.678 3.91128 195.521C3.72801 196.364 3.88979 197.245 4.36117 197.97L26.5295 231.979C27.0025 232.703 27.7462 233.212 28.5972 233.393C29.4483 233.575 30.3373 233.414 31.0692 232.947L46.5824 223.025C49.8378 220.938 52.1244 217.657 52.9407 213.902C53.7569 210.147 53.0361 206.224 50.9363 202.995V202.995Z" fill="#DFDFDF"/>
<path d="M48.7018 235.838C52.3993 220.455 51.7827 205.304 45.4512 190.459C45.3843 189.541 44.9525 188.686 44.2503 188.083C43.5481 187.48 42.633 187.177 41.7057 187.241L7.10789 189.673C6.18075 189.739 5.31798 190.167 4.70886 190.862C4.09974 191.558 3.79404 192.464 3.85878 193.383L7.10939 238.762C7.17623 239.68 7.6081 240.535 8.31026 241.138C9.01242 241.742 9.92756 242.044 10.8549 241.98L45.4526 239.548C46.3798 239.482 47.2426 239.054 47.8517 238.359C48.4608 237.663 48.7665 236.757 48.7018 235.838Z" fill="#BABABA"/>
<path d="M45.0661 222.319C48.0252 214.738 46.1332 204.313 42.9763 193.145C42.9137 192.285 42.5092 191.485 41.8516 190.92C41.194 190.355 40.337 190.071 39.4685 190.131L9.73467 192.221C8.86634 192.283 8.05829 192.683 7.4878 193.335C6.9173 193.986 6.63096 194.835 6.69158 195.696L9.58416 236.077C9.64677 236.937 10.0513 237.737 10.7089 238.302C11.3666 238.867 12.2236 239.151 13.0921 239.091L31.5116 237.796C35.3793 237.52 38.9786 235.735 41.5197 232.834C44.0607 229.932 45.3361 226.151 45.0661 222.319Z" fill="#DFDFDF"/>
<path d="M45.7185 140.875L60.5404 86.532C61.1753 84.2315 62.6978 82.2705 64.7794 81.0721C66.861 79.8738 69.3348 79.5342 71.6669 80.1266C72.8734 80.4331 74.0042 80.9798 74.9904 81.7333C75.9766 82.4868 76.7976 83.4313 77.4033 84.5094C78.009 85.5874 78.3866 86.7764 78.5133 88.0037C78.64 89.2311 78.513 90.4712 78.14 91.6483L60.9965 147.63L52.0271 182.081C53.3335 183.069 54.3011 184.431 54.7985 185.983C55.2959 187.535 55.299 189.201 54.8074 190.754C54.3157 192.308 53.3532 193.674 52.0506 194.667C50.7479 195.66 49.1683 196.231 47.5263 196.304C45.8843 196.376 44.2596 195.946 42.8729 195.072C41.4861 194.198 40.4046 192.923 39.7752 191.419C39.1459 189.915 38.9992 188.255 39.3551 186.666C39.711 185.076 40.5522 183.634 41.7645 182.535L45.7185 140.875Z" fill="#FFB6B6"/>
<path d="M152.613 150.275L137.413 96.0352C136.776 93.7354 137.077 91.2796 138.252 89.1978C139.426 87.116 141.38 85.5753 143.692 84.9079C144.887 84.5627 146.142 84.4623 147.378 84.6128C148.614 84.7634 149.806 85.1618 150.882 85.7837C151.958 86.4056 152.894 87.238 153.635 88.2302C154.375 89.2223 154.904 90.3534 155.188 91.5545L169.234 148.376L179.237 182.547C180.87 182.738 182.403 183.422 183.629 184.506C184.856 185.59 185.715 187.022 186.091 188.607C186.467 190.192 186.342 191.853 185.732 193.365C185.121 194.876 184.056 196.165 182.681 197.057C181.305 197.948 179.686 198.398 178.043 198.346C176.401 198.294 174.814 197.742 173.499 196.766C172.183 195.789 171.204 194.435 170.692 192.888C170.181 191.341 170.163 189.675 170.64 188.117L152.613 150.275Z" fill="#FFB6B6"/>
<path d="M65.6296 358.628L75.3158 358.627L79.9232 321.62L65.6282 321.621L65.6296 358.628Z" fill="#FFB6B6"/>
<path d="M65.2889 368.637L95.0739 368.636V368.263C95.0737 365.217 93.8522 362.296 91.6781 360.143C89.504 357.989 86.5553 356.779 83.4807 356.779H83.48L78.0394 352.69L67.8885 356.78L65.2884 356.78L65.2889 368.637Z" fill="#2F2E41"/>
<path d="M133.791 358.724L143.327 357.039L141.305 319.805L127.231 322.291L133.791 358.724Z" fill="#FFB6B6"/>
<path d="M135.229 368.636L164.551 363.456L164.485 363.089C163.945 360.091 162.225 357.428 159.703 355.686C157.181 353.944 154.064 353.265 151.037 353.8L151.037 353.8L144.956 350.721L135.687 356.511L133.128 356.964L135.229 368.636Z" fill="#2F2E41"/>
<path d="M132.847 188.475C132.847 188.475 141.874 201.14 141.506 205.391C141.138 209.641 137.95 206.25 141.138 209.641C144.326 213.031 146.183 210.757 144.617 214.945C143.051 219.134 142.413 216.422 143.051 219.134C143.688 221.847 142.413 325.596 142.413 325.596H125.814C125.814 325.596 116.453 265.438 117.638 262.629C118.823 259.82 118.795 261.043 117.534 258.058C116.272 255.074 115.085 251.523 115.085 251.523L101.964 214.946L91.8435 266.446L79.93 327.643H64.0228C64.0228 327.643 61.2989 237.651 60.0945 236.53C58.8902 235.409 60.331 232.889 61.8421 231.436C63.3532 229.984 63.052 228.509 62.565 225.517C62.0781 222.525 60.0237 220.856 60.0945 218.978C60.1653 217.1 55.7023 187.263 62.7157 182.517C69.729 177.77 132.847 188.475 132.847 188.475Z" fill="#2F2E41"/>
<path d="M77.3444 62.3204L95.9123 57.5543L104.58 45.7129L125.163 48.2194L129.545 64.3713L144.199 72.7971C117.931 72.9526 132.077 148.337 128.216 153.2C125.074 157.158 143.898 166.574 137.998 172.581C132.099 178.587 134.28 176.184 135.649 182.723C137.018 189.262 146.997 196.183 135.649 196.114C124.301 196.046 55.8228 195.077 57.7793 187.324C59.7357 179.572 59.705 181.541 62.6552 176.68C65.6053 171.82 67.5908 174.536 66.5981 167.364C65.6053 160.192 68.8298 154.644 66.5835 151.471C63.1358 146.599 66.6103 111.433 69.8613 112.372L77.3444 62.3204Z" fill="#6C63FF"/>
<path d="M82.6459 62.5716C82.6459 62.5716 69.0636 56.8559 64.1723 67.5151C62.6101 70.9196 61.2947 79.471 60.0272 77.5747C58.7597 75.6784 59.9826 79.8355 59.198 79.8407C58.4977 79.8453 57.421 78.7232 58.2348 82.5888C58.4897 83.8568 58.4163 85.1681 58.0214 86.4004C57.6266 87.6328 56.9231 88.746 55.9766 89.6362L79.5831 103.641L82.6459 62.5716Z" fill="#6C63FF"/>
<path d="M133.677 72.262C133.677 72.262 147.26 66.5463 152.151 77.2055C153.527 80.2033 153.184 86.8644 155.863 86.1166C158.542 85.3688 156.64 88.1864 156.994 89.1653C157.388 90.2563 155.668 93.3437 158.083 92.2633C160.498 91.1829 160.347 99.3267 160.347 99.3267L136.74 113.331L133.677 72.262Z" fill="#6C63FF"/>
<path d="M127.238 56.2979L131.151 63.081C131.151 63.081 141.911 68.8952 141.911 69.8642C141.911 70.8332 139.955 78.7456 141.911 84.9642C143.868 91.1827 138.177 102.877 137.02 112.501C132.129 153.2 146.674 167.988 149.738 193.899L118.695 202.88C118.695 202.88 113.542 134.789 113.542 119.284C113.542 103.78 127.238 56.2979 127.238 56.2979Z" fill="#2F2E41"/>
<path d="M98.8682 53.3906L90.8713 57.8961C90.8713 57.8961 80.4062 60.1817 80.2813 61.1428C80.1563 62.1039 80.1192 72.3184 77.3768 78.2385C74.6344 84.1585 75.39 87.3064 68.0044 104.807C64.2308 113.749 55.5676 185.291 55.5676 185.291L85.1976 198.126C85.1976 198.126 99.089 131.244 101.088 115.867C103.088 100.49 98.8682 53.3906 98.8682 53.3906Z" fill="#2F2E41"/>
<path d="M118.864 44.1523C107.692 44.1523 98.6363 35.1816 98.6363 24.1157C98.6363 13.0498 107.692 4.0791 118.864 4.0791C130.035 4.0791 139.091 13.0498 139.091 24.1157C139.091 35.1816 130.035 44.1523 118.864 44.1523Z" fill="#FFB6B6"/>
<path d="M105.552 39.6834C110.333 35.9812 103.797 19.6952 111.693 23.1714C111.693 23.1714 121.344 17.088 123.283 21.0856C125.528 25.7145 133.512 23.6146 138.417 21.9808C138.031 21.0933 137.757 20.1622 137.601 19.2085C138.506 19.9151 139.465 20.5514 140.47 21.1117C141.143 20.7552 141.739 20.2709 142.224 19.6865C142.703 19.1437 143.002 18.469 143.082 17.7528C143.162 17.0366 143.019 16.3134 142.672 15.6802C141.856 14.4374 140.171 14.055 139.18 12.9513C139.065 12.7961 138.991 12.6157 138.962 12.4256C138.933 12.2354 138.952 12.0412 139.015 11.8596C139.134 11.4155 139.151 10.9511 139.068 10.4995C138.984 10.0478 138.801 9.61998 138.531 9.24649C138.261 8.87301 137.911 8.56306 137.507 8.33871C137.102 8.11436 136.653 7.98114 136.191 7.94854C136.005 7.95417 135.82 7.91436 135.653 7.83261C134.821 7.32801 134.052 6.72703 133.363 6.04237C134.513 6.09451 133.107 -0.87424 121.712 0.445668C118.844 0.341391 117.345 3.47552 114.52 3.97089C107.673 0.0947909 101.56 5.68608 98.5859 11.0307C95.6117 16.3754 92.3919 33.6 105.552 39.6834Z" fill="#2F2E41"/>
<path d="M191.861 10.9395H373.18C376.63 10.9423 379.937 12.3005 382.377 14.7159C384.817 17.1314 386.19 20.407 386.195 23.8239V185.665C386.19 189.083 384.818 192.359 382.378 194.776C379.938 197.193 376.63 198.552 373.18 198.557H191.861C188.411 198.552 185.105 197.192 182.666 194.775C180.228 192.358 178.856 189.082 178.854 185.665V23.8239C178.857 20.4077 180.228 17.1323 182.667 14.7167C185.105 12.301 188.412 10.9426 191.861 10.9395V10.9395Z" fill="#DFDFDF"/>
<path d="M274.708 48.0842H294.079C295.031 48.0842 295.943 47.7099 296.616 47.0435C297.288 46.3771 297.666 45.4733 297.666 44.5309C297.666 43.5885 297.288 42.6847 296.616 42.0183C295.943 41.3519 295.031 40.9775 294.079 40.9775H274.708C273.757 40.9775 272.844 41.3519 272.172 42.0183C271.499 42.6847 271.121 43.5885 271.121 44.5309C271.121 45.4733 271.499 46.3771 272.172 47.0435C272.844 47.7099 273.757 48.0842 274.708 48.0842Z" fill="#6C63FF"/>
<path d="M17.8636 211.349H37.2346C38.186 211.349 39.0984 210.975 39.7711 210.308C40.4439 209.642 40.8218 208.738 40.8218 207.796C40.8218 206.853 40.4439 205.949 39.7711 205.283C39.0984 204.617 38.186 204.242 37.2346 204.242H17.8636C16.9122 204.242 15.9998 204.617 15.3271 205.283C14.6543 205.949 14.2764 206.853 14.2764 207.796C14.2764 208.738 14.6543 209.642 15.3271 210.308C15.9998 210.975 16.9122 211.349 17.8636 211.349Z" fill="#6C63FF"/>
<path d="M224.487 122.515H344.3C345.252 122.515 346.164 122.141 346.837 121.474C347.509 120.808 347.887 119.904 347.887 118.962C347.887 118.019 347.509 117.115 346.837 116.449C346.164 115.783 345.252 115.408 344.3 115.408H224.487C223.536 115.408 222.623 115.783 221.951 116.449C221.278 117.115 220.9 118.019 220.9 118.962C220.9 119.904 221.278 120.808 221.951 121.474C222.623 122.141 223.536 122.515 224.487 122.515Z" fill="#BABABA"/>
<path d="M224.487 145.967H344.3C345.252 145.967 346.164 145.593 346.837 144.926C347.509 144.26 347.887 143.356 347.887 142.414C347.887 141.471 347.509 140.567 346.837 139.901C346.164 139.235 345.252 138.86 344.3 138.86H224.487C223.536 138.86 222.623 139.235 221.951 139.901C221.278 140.567 220.9 141.471 220.9 142.414C220.9 143.356 221.278 144.26 221.951 144.926C222.623 145.593 223.536 145.967 224.487 145.967Z" fill="#BABABA"/>
<path d="M224.487 169.419H344.3C345.252 169.419 346.164 169.045 346.837 168.378C347.509 167.712 347.887 166.808 347.887 165.866C347.887 164.923 347.509 164.02 346.837 163.353C346.164 162.687 345.252 162.312 344.3 162.312H224.487C223.536 162.312 222.623 162.687 221.951 163.353C221.278 164.02 220.9 164.923 220.9 165.866C220.9 166.808 221.278 167.712 221.951 168.378C222.623 169.045 223.536 169.419 224.487 169.419Z" fill="#BABABA"/>
<path d="M248.976 58.7461H319.81C323.259 58.7489 326.567 60.1071 329.006 62.5226C331.446 64.9381 332.819 68.2136 332.824 71.6306V92.7588C332.82 96.1765 331.447 99.453 329.007 101.87C326.568 104.286 323.26 105.646 319.81 105.65H248.976C245.527 105.646 242.22 104.286 239.782 101.869C237.343 99.4521 235.972 96.1758 235.969 92.7588V71.6306C235.972 68.2144 237.344 64.9389 239.782 62.5233C242.221 60.1077 245.528 58.7492 248.976 58.7461ZM237.404 92.7588C237.404 95.8009 238.624 98.7184 240.796 100.87C242.967 103.021 245.913 104.229 248.984 104.229H299.831C308.201 104.229 316.228 100.936 322.146 95.0731C328.064 89.2106 331.389 81.2594 331.389 72.9686V71.6306C331.384 68.5906 330.162 65.6767 327.992 63.5277C325.821 61.3788 322.879 60.1704 319.81 60.1674H248.976C245.908 60.1707 242.967 61.3794 240.797 63.5285C238.628 65.6775 237.407 68.5914 237.404 71.6306V92.7588Z" fill="#BABABA"/>
<path d="M283.6 89.824C276.864 89.824 271.404 84.4149 271.404 77.7425C271.404 71.0702 276.864 65.6611 283.6 65.6611C290.336 65.6611 295.797 71.0702 295.797 77.7425C295.797 84.4149 290.336 89.824 283.6 89.824Z" fill="#BABABA"/>
<path d="M255.541 105.651L310.146 105.459L292.927 101.195L290.782 94.1803L274.274 94.0879L269.33 101.024L256.847 104.229L255.713 104.521L255.541 105.651Z" fill="#BABABA"/>
<path d="M290.532 85.4555C287.915 83.4291 291.492 74.5145 287.17 76.4173C287.17 76.4173 281.888 73.0874 280.826 75.2756C279.598 77.8094 275.227 76.6599 272.542 75.7656C272.753 75.2798 272.903 74.7701 272.989 74.2481C272.493 74.6349 271.968 74.9832 271.419 75.2899C271.05 75.0947 270.724 74.8296 270.458 74.5097C270.196 74.2126 270.033 73.8433 269.989 73.4513C269.945 73.0593 270.023 72.6634 270.213 72.3168C270.66 71.6365 271.582 71.4272 272.125 70.8231C272.187 70.7381 272.228 70.6394 272.244 70.5353C272.26 70.4312 272.25 70.3249 272.215 70.2255C272.15 69.9824 272.14 69.7282 272.186 69.481C272.232 69.2337 272.332 68.9996 272.48 68.7951C272.628 68.5907 272.819 68.421 273.04 68.2982C273.262 68.1754 273.508 68.1025 273.761 68.0847C273.863 68.0877 273.964 68.066 274.055 68.0212C274.511 67.745 274.932 67.416 275.309 67.0413C274.679 67.0698 275.449 63.2553 281.686 63.9778C283.256 63.9207 284.076 65.6362 285.623 65.9074C289.371 63.7857 292.717 66.8462 294.345 69.7718C295.973 72.6973 297.735 82.1256 290.532 85.4555Z" fill="#BABABA"/>
<path d="M191.861 10.9395H373.18C376.63 10.9423 379.937 12.3005 382.377 14.7159C384.817 17.1314 386.19 20.407 386.195 23.8239V185.665C386.19 189.083 384.818 192.359 382.378 194.776C379.938 197.193 376.63 198.552 373.18 198.557H191.861C188.411 198.552 185.105 197.192 182.666 194.775C180.228 192.358 178.856 189.082 178.854 185.665V23.8239C178.857 20.4077 180.228 17.1323 182.667 14.7167C185.105 12.301 188.412 10.9426 191.861 10.9395ZM180.289 185.665C180.289 188.707 181.508 191.625 183.68 193.776C185.852 195.927 188.797 197.135 191.868 197.135H291.348C303.615 197.135 315.762 194.742 327.095 190.092C338.428 185.442 348.726 178.626 357.4 170.034C366.074 161.442 372.955 151.241 377.649 140.015C382.344 128.789 384.76 116.757 384.76 104.605V23.8239C384.755 20.784 383.533 17.87 381.362 15.7211C379.192 13.5722 376.249 12.3637 373.18 12.3608H191.861C188.793 12.364 185.851 13.5728 183.682 15.7218C181.512 17.8709 180.292 20.7847 180.289 23.8239V185.665Z" fill="#BABABA"/>
<path d="M2.42924 369.788L228.68 370.006C228.906 370.005 229.122 369.915 229.282 369.757C229.441 369.598 229.53 369.384 229.53 369.16C229.53 368.936 229.441 368.722 229.282 368.563C229.122 368.405 228.906 368.315 228.68 368.314L2.42924 368.096C2.20343 368.097 1.98726 368.186 1.82797 368.345C1.6687 368.503 1.5793 368.718 1.5793 368.942C1.5793 369.165 1.6687 369.38 1.82797 369.538C1.98726 369.697 2.20343 369.787 2.42924 369.788Z" fill="#CACACA"/>
</g>
<defs>
<clipPath id="clip0_4458_10">
<rect width="386" height="369.727" fill="white" transform="matrix(-1 0 0 1 386.195 0.279297)"/>
</clipPath>
</defs>
</svg>

