<svg width="316" height="160" viewBox="0 0 316 160" fill="none" xmlns="http://www.w3.org/2000/svg">
<g clip-path="url(#clip0_4629_50)">
<path d="M232.338 85.2023C232.333 99.0835 228.471 112.69 221.183 124.502C213.894 136.314 203.468 145.866 191.066 152.092C190.432 152.411 189.791 152.722 189.143 153.023C172.404 160.795 153.391 162.125 135.734 156.759C134.001 156.229 132.295 155.64 130.617 154.99C115.27 149.051 102.309 138.212 93.7428 124.155C85.1771 110.098 81.4849 93.6062 83.2384 77.2364C84.9919 60.8666 92.0932 45.5324 103.442 33.6103C114.79 21.6881 129.753 13.8436 146.01 11.2925C149.836 10.7002 153.703 10.4032 157.575 10.4043C198.866 10.4043 232.338 43.892 232.338 85.2023Z" fill="#F2F2F2"/>
<path d="M237.761 95.8624C248.907 83.7558 254.641 65.6303 248.632 50.3086C239.779 65.862 225.711 77.781 208.919 83.9568C202.435 86.315 194.977 88.2624 191.455 94.198C189.263 97.8912 189.107 102.514 190.101 106.693C191.094 110.871 193.135 114.714 195.155 118.504L195.167 119.576C210.951 114.935 226.616 107.969 237.761 95.8624Z" fill="#E6E6E6"/>
<path d="M248.297 50.3902C246.405 63.8816 240.312 76.4336 230.884 86.2633C228.851 88.3569 226.607 90.3037 224.013 91.6698C221.474 92.982 218.63 93.59 215.777 93.4308C213.114 93.3358 210.401 92.9301 207.761 93.4844C204.978 94.0687 202.776 95.8664 201.348 98.2911C199.6 101.258 199.022 104.676 198.573 108.038C198.075 111.771 197.616 115.657 195.485 118.87C195.227 119.259 195.846 119.637 196.104 119.248C199.811 113.658 198.562 106.52 201.061 100.493C202.227 97.6808 204.247 95.2031 207.271 94.3512C209.914 93.6063 212.712 94.0223 215.408 94.1418C218.239 94.2673 220.933 93.9194 223.525 92.7202C226.176 91.4935 228.501 89.6304 230.578 87.5979C235.255 82.954 239.172 77.6034 242.187 71.7421C245.665 65.0716 247.976 57.8552 249.022 50.4049C249.087 49.9437 248.361 49.9321 248.297 50.3902Z" fill="white"/>
<path d="M234.106 83.2771C235.969 84.6358 238.254 85.2877 240.554 85.1163C242.853 84.9449 245.016 83.9614 246.658 82.3415C246.989 82.0126 246.493 81.4825 246.162 81.8119C244.636 83.3232 242.621 84.2391 240.479 84.3944C238.338 84.5496 236.212 83.9339 234.484 82.6584C234.108 82.3816 233.732 83.002 234.106 83.2771V83.2771Z" fill="white"/>
<path d="M217.121 93.6564C216.349 89.0047 217.358 84.2329 219.947 80.2925C220.204 79.9023 219.585 79.5241 219.329 79.9138C216.642 84.0194 215.602 88.9873 216.416 93.8262C216.494 94.2874 217.199 94.1151 217.121 93.6564Z" fill="white"/>
<path d="M244.705 65.0029C243.875 64.6274 243.151 64.0515 242.598 63.3269C242.045 62.6023 241.68 61.7516 241.537 60.8512C241.465 60.3893 240.761 60.5621 240.832 61.021C240.995 62.015 241.399 62.9541 242.008 63.756C242.617 64.558 243.413 65.1985 244.327 65.6217C244.41 65.6688 244.507 65.6826 244.6 65.6602C244.692 65.6379 244.773 65.5812 244.825 65.5016C244.875 65.4194 244.89 65.3209 244.868 65.2275C244.845 65.1342 244.787 65.0534 244.705 65.0029Z" fill="white"/>
<path d="M195.707 32.9336C195.744 33.2233 195.781 33.513 195.813 33.8069C196.287 37.7044 196.444 41.6341 196.282 45.557C196.274 45.8605 196.262 46.168 196.245 46.4706C195.754 55.9177 193.514 65.1914 189.639 73.8203C188.094 77.2526 186.29 80.5622 184.243 83.7206C181.416 88.0824 178.004 92.5866 176.817 97.4839C176.687 97.9935 176.589 98.5105 176.523 99.0322L193.859 119.508C193.922 119.535 193.98 119.566 194.043 119.593L194.698 120.442C194.815 120.287 194.933 120.123 195.05 119.967C195.118 119.878 195.182 119.783 195.251 119.693C195.295 119.632 195.339 119.57 195.382 119.517C195.397 119.497 195.412 119.476 195.422 119.46C195.465 119.407 195.5 119.353 195.539 119.304C196.201 118.39 196.857 117.47 197.509 116.544C197.513 116.54 197.513 116.54 197.514 116.532C202.459 109.461 206.857 101.915 209.97 93.9411C210.064 93.7011 210.162 93.4575 210.248 93.2082C211.631 89.6061 212.718 85.897 213.498 82.1178C213.918 80.0471 214.233 77.9564 214.442 75.8538C214.971 70.4199 214.642 64.9366 213.468 59.6049C211.126 48.9764 205.413 39.2157 196.4 33.3732C196.17 33.2239 195.943 33.0789 195.707 32.9336Z" fill="#E6E6E6"/>
<path d="M195.487 33.1999C202.095 45.1116 204.784 58.8037 203.171 72.3313C202.808 75.2274 202.188 78.1335 200.939 80.7869C199.701 83.3638 197.797 85.5622 195.423 87.1536C193.239 88.682 190.829 89.9923 189.054 92.0251C187.184 94.1677 186.508 96.9293 186.827 99.7257C187.217 103.147 188.812 106.224 190.477 109.179C192.325 112.46 194.297 115.839 194.529 119.688C194.558 120.154 195.279 120.083 195.251 119.618C194.847 112.921 189.554 107.974 187.923 101.657C187.161 98.7089 187.283 95.5137 189.185 93.0125C190.847 90.8254 193.332 89.472 195.556 87.9437C197.892 86.3388 199.834 84.438 201.181 81.9194C202.56 79.343 203.295 76.455 203.731 73.5809C204.67 67.0563 204.577 60.4246 203.457 53.9286C202.22 46.5078 199.723 39.3533 196.074 32.7748C195.848 32.3678 195.262 32.7955 195.487 33.1999V33.1999Z" fill="white"/>
<path d="M203.947 68.0049C206.252 67.9675 208.469 67.1114 210.202 65.5896C211.934 64.0678 213.07 61.9794 213.405 59.6973C213.472 59.2353 212.757 59.1105 212.691 59.5731C212.382 61.6987 211.324 63.644 209.708 65.0578C208.092 66.4716 206.023 67.2608 203.876 67.2829C203.41 67.2882 203.483 68.0102 203.947 68.0049Z" fill="white"/>
<path d="M196.631 86.5239C193.216 83.2747 191.15 78.8568 190.846 74.1513C190.816 73.6851 190.094 73.7559 190.124 74.2215C190.45 79.1176 192.609 83.7107 196.171 87.0841C196.511 87.4054 196.969 86.8435 196.631 86.5239L196.631 86.5239Z" fill="white"/>
<path d="M201.413 47.0291C200.524 47.2295 199.599 47.2059 198.721 46.9604C197.844 46.7149 197.041 46.2551 196.385 45.6224C196.049 45.297 195.591 45.8593 195.924 46.1826C196.652 46.8783 197.539 47.3849 198.508 47.6583C199.477 47.9317 200.499 47.9636 201.483 47.7511C201.577 47.7388 201.663 47.691 201.724 47.6175C201.784 47.5439 201.815 47.45 201.809 47.3549C201.799 47.2594 201.752 47.1716 201.678 47.1105C201.603 47.0495 201.508 47.0202 201.413 47.0291H201.413Z" fill="white"/>
<path d="M85.2305 115.634C76.3384 105.975 71.7629 91.5142 76.5573 79.29C83.621 91.6991 94.8443 101.208 108.241 106.136C113.415 108.017 119.365 109.571 122.175 114.307C123.924 117.253 124.048 120.941 123.256 124.275C122.463 127.609 120.835 130.675 119.223 133.698L119.213 134.554C106.62 130.851 94.1227 125.294 85.2305 115.634Z" fill="#E6E6E6"/>
<path d="M76.8249 79.3562C78.3344 90.1201 83.1955 100.134 90.7177 107.977C92.3072 109.694 94.1572 111.15 96.1997 112.29C98.2252 113.337 100.494 113.822 102.77 113.695C104.895 113.62 107.06 113.296 109.166 113.738C110.241 113.981 111.252 114.448 112.134 115.108C113.016 115.769 113.748 116.609 114.282 117.573C115.677 119.94 116.138 122.667 116.496 125.35C116.894 128.328 117.26 131.428 118.96 133.991C119.166 134.302 118.672 134.603 118.467 134.293C115.509 129.833 116.505 124.138 114.512 119.33C113.581 117.086 111.969 115.109 109.557 114.43C107.448 113.835 105.215 114.167 103.065 114.263C100.846 114.419 98.6226 114.03 96.5889 113.128C94.4949 112.095 92.5919 110.713 90.9614 109.042C87.2306 105.337 84.1052 101.068 81.6998 96.3914C78.925 91.0695 77.0806 85.312 76.2464 79.3679C76.1949 78.9999 76.7737 78.9907 76.8249 79.3562L76.8249 79.3562Z" fill="white"/>
<path d="M88.1474 105.595C86.6609 106.679 84.8376 107.199 83.0032 107.062C81.1688 106.925 79.4426 106.141 78.1331 104.848C77.869 104.586 78.2642 104.163 78.5287 104.426C79.7459 105.631 81.3538 106.362 83.0623 106.486C84.7708 106.61 86.4672 106.119 87.8454 105.101C88.1452 104.88 88.4454 105.375 88.1474 105.595Z" fill="white"/>
<path d="M101.698 113.875C102.314 110.164 101.509 106.357 99.4433 103.213C99.2385 102.902 99.7321 102.6 99.9368 102.911C102.08 106.187 102.91 110.15 102.26 114.011C102.198 114.379 101.636 114.241 101.698 113.875V113.875Z" fill="white"/>
<path d="M79.69 91.0148C80.3525 90.7153 80.9303 90.2558 81.3715 89.6776C81.8127 89.0995 82.1034 88.4208 82.2176 87.7024C82.275 87.3339 82.8371 87.4718 82.78 87.8379C82.6501 88.631 82.3281 89.3802 81.8421 90.02C81.3561 90.6599 80.7209 91.1709 79.9919 91.5085C79.9259 91.5461 79.848 91.5571 79.7741 91.5393C79.7003 91.5215 79.6359 91.4762 79.5942 91.4127C79.5546 91.3471 79.5424 91.2685 79.5603 91.194C79.5783 91.1195 79.6248 91.0551 79.69 91.0148Z" fill="white"/>
<path d="M118.782 65.4287C118.753 65.6599 118.724 65.891 118.698 66.1255C118.32 69.235 118.195 72.3702 118.324 75.5001C118.33 75.7422 118.34 75.9875 118.353 76.229C118.745 83.7661 120.532 91.165 123.624 98.0495C124.857 100.788 126.296 103.428 127.929 105.948C130.185 109.428 132.907 113.022 133.854 116.929C133.958 117.336 134.036 117.748 134.088 118.164L120.257 134.501C120.207 134.522 120.16 134.547 120.11 134.569L119.588 135.246C119.495 135.122 119.4 134.991 119.307 134.867C119.253 134.796 119.201 134.72 119.147 134.648C119.112 134.599 119.076 134.55 119.042 134.508C119.03 134.492 119.018 134.475 119.01 134.462C118.976 134.42 118.948 134.377 118.917 134.338C118.389 133.609 117.865 132.875 117.345 132.136C117.342 132.133 117.342 132.133 117.341 132.126C113.396 126.485 109.887 120.464 107.403 114.102C107.329 113.911 107.25 113.717 107.182 113.518C106.078 110.644 105.211 107.685 104.589 104.67C104.254 103.017 104.002 101.349 103.836 99.6719C103.414 95.3365 103.676 90.9618 104.612 86.7079C106.481 78.2282 111.039 70.4407 118.23 65.7794C118.414 65.6603 118.595 65.5447 118.782 65.4287Z" fill="#E6E6E6"/>
<path d="M118.959 65.6403C113.686 75.1439 111.541 86.0679 112.828 96.8607C113.063 99.1891 113.665 101.466 114.609 103.607C115.596 105.663 117.116 107.417 119.01 108.686C120.752 109.906 122.675 110.951 124.091 112.573C124.803 113.414 125.33 114.396 125.636 115.455C125.942 116.514 126.021 117.625 125.868 118.717C125.557 121.447 124.284 123.902 122.956 126.259C121.481 128.877 119.908 131.573 119.723 134.643C119.7 135.015 119.124 134.959 119.147 134.587C119.469 129.245 123.692 125.298 124.994 120.258C125.601 117.906 125.504 115.356 123.987 113.361C122.66 111.616 120.678 110.536 118.903 109.317C117.038 108.105 115.497 106.455 114.415 104.51C113.365 102.424 112.677 100.175 112.382 97.8576C111.632 92.6521 111.706 87.3611 112.6 82.1784C113.587 76.2577 115.579 70.5497 118.49 65.3012C118.67 64.9764 119.138 65.3176 118.959 65.6403H118.959Z" fill="white"/>
<path d="M112.209 93.4094C110.37 93.3796 108.601 92.6966 107.218 91.4825C105.836 90.2683 104.93 88.6021 104.662 86.7813C104.609 86.4127 105.179 86.3131 105.232 86.6822C105.479 88.3782 106.323 89.9302 107.612 91.0582C108.902 92.1861 110.552 92.8158 112.265 92.8334C112.637 92.8377 112.579 93.4137 112.209 93.4094Z" fill="white"/>
<path d="M118.045 108.185C120.77 105.593 122.418 102.068 122.661 98.3139C122.685 97.9419 123.261 97.9984 123.237 98.3699C122.977 102.276 121.254 105.941 118.413 108.632C118.142 108.888 117.776 108.44 118.045 108.185Z" fill="white"/>
<path d="M114.231 76.6741C114.94 76.834 115.678 76.8152 116.378 76.6193C117.079 76.4234 117.719 76.0566 118.243 75.5518C118.51 75.2922 118.876 75.7408 118.61 75.9988C118.029 76.5538 117.321 76.958 116.548 77.1762C115.775 77.3943 114.96 77.4197 114.175 77.2501C114.1 77.2404 114.031 77.2022 113.983 77.1435C113.934 77.0848 113.91 77.01 113.915 76.9341C113.923 76.8579 113.961 76.7878 114.02 76.7391C114.079 76.6904 114.155 76.6671 114.231 76.6741Z" fill="white"/>
<path d="M275.302 75.6214C278.086 77.512 281.18 79.6393 282.077 83.09C282.283 83.827 282.338 84.5981 282.239 85.357C282.14 86.1159 281.888 86.8468 281.499 87.5058C280.785 88.6972 279.72 89.6331 278.682 90.5351C277.449 91.6066 276.206 92.6598 275.249 93.9977C274.811 94.6104 275.823 95.1947 276.258 94.5876C278.032 92.1072 280.98 90.7022 282.541 88.0403C284.387 84.8923 283.155 81.1589 280.867 78.6103C279.439 77.0199 277.648 75.8054 275.891 74.6122C275.268 74.1887 274.682 75.2009 275.302 75.6214H275.302Z" fill="#E6E7E8"/>
<path d="M285.037 75.6214C287.82 77.512 290.915 79.6393 291.812 83.09C292.018 83.827 292.073 84.5981 291.974 85.357C291.875 86.1159 291.623 86.8468 291.234 87.5058C290.52 88.6972 289.455 89.6331 288.417 90.5351C287.184 91.6066 285.941 92.6598 284.984 93.9977C284.546 94.6104 285.558 95.1947 285.992 94.5876C287.766 92.1072 290.715 90.7022 292.276 88.0403C294.122 84.8923 292.89 81.1589 290.602 78.6103C289.174 77.0199 287.383 75.8054 285.626 74.6122C285.002 74.1887 284.417 75.2009 285.037 75.6214H285.037Z" fill="#E6E7E8"/>
<path d="M48.0325 75.6214C45.2486 77.512 42.1542 79.6393 41.2571 83.09C41.0508 83.827 40.9957 84.5981 41.0951 85.357C41.1944 86.1159 41.4461 86.8468 41.8351 87.5058C42.5494 88.6972 43.6138 89.6331 44.652 90.5351C45.8853 91.6066 47.1284 92.6598 48.0853 93.9977C48.5235 94.6104 47.5108 95.1947 47.0766 94.5876C45.3026 92.1072 42.3545 90.7022 40.7932 88.0403C38.9468 84.8923 40.179 81.1589 42.4672 78.6103C43.8952 77.0199 45.6859 75.8054 47.4429 74.6122C48.0665 74.1887 48.6517 75.2009 48.0325 75.6214H48.0325Z" fill="#E6E7E8"/>
<path d="M38.2976 75.6214C35.5138 77.512 32.4194 79.6393 31.5222 83.09C31.316 83.827 31.2609 84.5981 31.3602 85.357C31.4595 86.1159 31.7113 86.8468 32.1002 87.5058C32.8146 88.6972 33.8789 89.6331 34.9171 90.5351C36.1505 91.6066 37.3935 92.6598 38.3505 93.9977C38.7887 94.6104 37.776 95.1947 37.3418 94.5876C35.5677 92.1072 32.6196 90.7022 31.0584 88.0403C29.2119 84.8923 30.4441 81.1589 32.7324 78.6103C34.1604 77.0199 35.951 75.8054 37.708 74.6122C38.3317 74.1887 38.9168 75.2009 38.2976 75.6214H38.2976Z" fill="#E6E7E8"/>
<path d="M156.747 81.9271C166.966 81.9271 175.251 73.6474 175.251 63.4338C175.251 53.2202 166.966 44.9404 156.747 44.9404C146.528 44.9404 138.243 53.2202 138.243 63.4338C138.243 73.6474 146.528 81.9271 156.747 81.9271Z" fill="#FFB8B8"/>
<path d="M136.105 45.6433C136.245 43.5196 137.651 41.3465 142.115 40.2109C142.115 40.2109 149.777 30.4186 160.189 35.5538C160.189 35.5538 165.237 34.6859 168.979 39.92C168.979 39.92 172.69 37.7326 174.256 41.6098C174.256 41.6098 178.608 49.5183 177.006 57.585C175.404 65.6516 174.584 66.6583 174.584 66.6583C174.584 66.6583 176.626 49.9726 164.862 51.1296C153.099 52.2866 143.628 48.1521 140.964 57.2045C138.752 64.7213 139.031 68.6252 139.031 68.6252C139.031 68.6252 131.633 61.1265 134.149 55.2219C135.435 52.2019 135.89 48.9185 136.105 45.6433Z" fill="#2F2E41"/>
<path d="M106.375 139.963C106.375 139.963 124.511 160.001 158.555 160.001C192.6 160.001 208.723 139.963 208.723 139.963C208.039 132.161 207.592 126.355 207.592 124.392C207.592 115.734 200.504 106.285 200.504 106.285L197.966 104.883L176.776 98.276L171.293 91.1568C170.718 90.4092 169.979 89.8049 169.131 89.3914C168.284 88.9778 167.352 88.7664 166.409 88.7736L149.086 88.9035C147.562 88.9152 146.097 89.4955 144.978 90.5305L134.252 100.476L118.519 107.985L118.492 107.958L118.328 108.08L115.993 109.761L114.491 110.845C114.491 110.845 110.551 115.57 107.402 129.739C106.929 131.87 106.596 135.438 106.375 139.963Z" fill="#6C63FF"/>
</g>
<defs>
<clipPath id="clip0_4629_50">
<rect width="315.152" height="160" fill="white"/>
</clipPath>
</defs>
</svg>
