<svg width="295" height="445" viewBox="0 0 295 445" fill="none" xmlns="http://www.w3.org/2000/svg">
<g clip-path="url(#clip0_4525_15)">
<path d="M233.166 357.966C232.941 358.221 232.715 358.482 232.497 358.744C229.452 362.28 226.701 366.059 224.271 370.044C224.075 370.35 223.886 370.662 223.712 370.968C217.96 380.595 214.045 391.207 212.164 402.265C211.743 404.766 211.426 407.282 211.212 409.813C211.06 411.761 210.968 413.713 210.936 415.666C210.82 423.869 211.547 432.994 206.264 439.263C204.852 440.912 203.128 442.266 201.191 443.247C199.733 444.003 198.192 444.586 196.599 444.985H180.125C179.296 444.862 178.468 444.731 177.639 444.6C177.618 444.6 177.596 444.593 177.574 444.593L177.407 444.651L176.411 444.985L176.368 445V444.985C176.369 444.956 176.366 444.927 176.36 444.898C176.362 444.845 176.359 444.791 176.353 444.738V444.731C176.346 444.585 176.339 444.447 176.339 444.302L176.317 443.916C176.317 443.916 176.309 443.909 176.317 443.909C176.309 443.691 176.295 443.473 176.288 443.247C175.525 424.269 177.385 404.657 186.338 387.947C189.408 382.221 193.361 377.017 198.052 372.524C198.079 372.495 198.109 372.469 198.139 372.444C207.448 363.558 219.482 357.748 232.185 357.944C232.512 357.944 232.839 357.952 233.166 357.966Z" fill="#F0F0F0"/>
<path d="M233.203 358.377C218.816 365.764 207.122 377.5 199.78 391.917C198.145 394.993 197.004 398.307 196.4 401.738C195.919 405.099 196.347 408.528 197.639 411.668C198.784 414.62 200.297 417.507 200.706 420.686C200.891 422.316 200.729 423.967 200.232 425.531C199.734 427.095 198.912 428.535 197.819 429.759C195.175 432.878 191.569 434.86 187.975 436.676C183.984 438.692 179.807 440.723 177.037 444.368C176.701 444.81 176.036 444.263 176.371 443.822C181.191 437.48 189.681 436.097 195.463 430.94C198.16 428.534 200.15 425.3 199.925 421.574C199.729 418.317 198.171 415.339 196.985 412.36C195.681 409.315 195.141 405.997 195.413 402.695C195.84 399.245 196.851 395.892 198.403 392.781C201.785 385.721 206.255 379.236 211.65 373.566C217.771 367.06 224.959 361.649 232.904 357.569C233.395 357.316 233.691 358.126 233.203 358.377H233.203Z" fill="white"/>
<path d="M201.871 387.136C199.621 385.575 197.999 383.265 197.294 380.618C196.589 377.97 196.847 375.158 198.023 372.684C198.263 372.184 199.05 372.534 198.81 373.034C197.711 375.336 197.471 377.955 198.132 380.419C198.793 382.883 200.313 385.029 202.417 386.47C202.874 386.784 202.325 387.448 201.871 387.136Z" fill="white"/>
<path d="M196.861 410.248C202.377 409.299 207.332 406.305 210.74 401.862C211.077 401.421 211.743 401.968 211.406 402.408C207.851 407.025 202.687 410.131 196.945 411.105C196.398 411.198 196.316 410.34 196.861 410.248V410.248Z" fill="white"/>
<path d="M218.223 368.109C218.968 368.894 219.896 369.482 220.924 369.82C221.952 370.158 223.048 370.235 224.113 370.044C224.659 369.945 224.74 370.803 224.198 370.901C223.02 371.107 221.81 371.02 220.673 370.649C219.536 370.279 218.508 369.635 217.677 368.775C217.592 368.7 217.538 368.596 217.527 368.483C217.516 368.371 217.548 368.258 217.617 368.168C217.69 368.081 217.794 368.025 217.907 368.014C218.021 368.003 218.134 368.037 218.223 368.109Z" fill="white"/>
<path d="M273.286 410.584C272.952 410.656 272.618 410.729 272.276 410.809H272.269C267.715 411.799 263.248 413.156 258.912 414.867C258.578 414.997 258.244 415.128 257.91 415.267H257.902C247.567 419.477 238.097 425.561 229.968 433.213C229.939 433.242 229.91 433.264 229.881 433.293C229.864 433.314 229.844 433.333 229.823 433.351L229.787 433.387C226.562 436.445 223.571 439.741 220.841 443.248C220.841 443.255 220.834 443.262 220.827 443.269C220.391 443.837 219.947 444.404 219.511 444.986H176.411L176.368 445V444.986H176.186C176.186 444.978 176.193 444.971 176.2 444.964C176.2 444.956 176.208 444.956 176.208 444.949C176.259 444.876 176.309 444.804 176.353 444.738V444.731C176.364 444.709 176.379 444.689 176.397 444.673C176.44 444.6 176.491 444.542 176.527 444.477C176.818 444.069 177.102 443.655 177.392 443.248C177.865 442.571 178.344 441.895 178.831 441.226C178.831 441.225 178.831 441.224 178.832 441.223C178.832 441.222 178.832 441.222 178.833 441.221C178.834 441.22 178.835 441.22 178.836 441.219C178.836 441.219 178.837 441.219 178.838 441.219V441.212C178.846 441.204 178.846 441.197 178.853 441.19L178.867 441.175C184.863 432.871 191.606 424.989 199.331 418.386C199.564 418.182 199.796 417.979 200.043 417.79C203.541 414.828 207.277 412.16 211.212 409.813C213.363 408.54 215.58 407.372 217.862 406.308C223.747 403.594 230.022 401.822 236.458 401.058H236.472C236.487 401.058 236.501 401.051 236.523 401.051C236.545 401.051 236.559 401.043 236.574 401.043C249.371 399.56 262.488 402.17 272.523 409.98C272.785 410.184 273.032 410.38 273.286 410.584Z" fill="#F0F0F0"/>
<path d="M176.186 444.985H176.368V445L176.411 444.985H187.944C184.507 444.396 181.077 443.938 177.639 444.6C177.559 444.615 177.487 444.629 177.407 444.651C177.058 444.716 176.709 444.804 176.36 444.898C176.339 444.905 176.31 444.913 176.288 444.92C176.256 444.929 176.226 444.943 176.201 444.964C176.182 444.966 176.164 444.974 176.15 444.985H176.186Z" fill="white"/>
<path d="M273.076 410.94C272.807 410.896 272.545 410.845 272.276 410.809H272.269C266.662 409.894 260.971 409.606 255.301 409.951C255.017 409.965 254.727 409.987 254.436 410.002C246.565 410.551 238.827 412.315 231.494 415.23C231.487 415.23 231.487 415.23 231.487 415.237C231.407 415.266 231.327 415.296 231.255 415.325C229.547 416.015 227.861 416.772 226.211 417.586C223.055 419.057 220.149 421.015 217.6 423.389C215.56 425.404 214.015 427.866 213.087 430.58C212.993 430.857 212.898 431.126 212.811 431.402C212.746 431.62 212.68 431.846 212.615 432.064C211.757 435.111 211.227 438.325 209.643 441.11C209.202 441.887 208.664 442.605 208.044 443.248C207.403 443.915 206.68 444.499 205.893 444.985H204.062C205.064 444.552 205.993 443.966 206.816 443.248C207.456 442.695 208.016 442.056 208.48 441.35C210.282 438.63 210.835 435.314 211.677 432.224C211.816 431.722 211.961 431.235 212.121 430.748C212.96 428.081 214.365 425.628 216.241 423.556C218.658 421.059 221.481 418.991 224.591 417.441C226.553 416.408 228.568 415.473 230.637 414.634C230.906 414.518 231.175 414.416 231.444 414.314C244.505 409.227 258.689 407.731 272.523 409.98C272.792 410.016 273.054 410.067 273.323 410.111C273.868 410.205 273.621 411.034 273.076 410.94Z" fill="white"/>
<path d="M230.757 415.024C229.9 412.423 229.995 409.6 231.025 407.062C232.055 404.524 233.953 402.434 236.38 401.167C236.872 400.912 237.291 401.666 236.798 401.921C234.536 403.096 232.768 405.043 231.813 407.409C230.859 409.774 230.781 412.403 231.594 414.821C231.77 415.347 230.932 415.547 230.757 415.024H230.757Z" fill="white"/>
<path d="M212.851 430.46C217.826 433.025 223.584 433.62 228.978 432.126C229.513 431.977 229.715 432.815 229.181 432.963C223.565 434.508 217.574 433.877 212.402 431.196C211.91 430.94 212.36 430.206 212.851 430.46Z" fill="white"/>
<path d="M255.261 409.684C255.383 410.76 255.771 411.789 256.388 412.678C257.006 413.567 257.834 414.289 258.8 414.778C259.295 415.028 258.844 415.762 258.351 415.514C257.287 414.968 256.373 414.17 255.689 413.189C255.004 412.208 254.57 411.075 254.424 409.887C254.401 409.776 254.421 409.661 254.48 409.564C254.539 409.468 254.632 409.397 254.741 409.367C254.852 409.341 254.969 409.359 255.067 409.419C255.164 409.478 255.234 409.574 255.261 409.684Z" fill="white"/>
<path d="M230.412 120.919C230.608 96.8431 231.586 72.5342 233.347 47.9925C233.376 47.5053 233.413 47.0254 233.449 46.5382C234.379 33.762 235.518 20.9398 236.865 8.07148V7.99876C236.863 5.87774 236.021 3.84397 234.522 2.34418C233.023 0.844401 230.991 0.00126569 228.871 0H14.4969C12.3845 0.00415326 10.3592 0.843227 8.862 2.33453C7.36485 3.82584 6.51711 5.8486 6.50334 7.9624C4.64301 25.6833 3.18477 43.3169 2.12864 60.8633C2.08504 61.4377 2.05598 62.0049 2.02691 62.5794C1.5037 71.2544 1.08706 79.9076 0.777004 88.539C0.755204 89.048 0.733397 89.557 0.726131 90.066C-1.25787 143.025 0.673133 196.058 6.50334 248.732C6.51862 250.845 7.36708 252.866 8.86411 254.356C10.3611 255.846 12.3856 256.684 14.4969 256.687H228.871C230.991 256.686 233.023 255.843 234.522 254.343C236.021 252.843 236.863 250.81 236.865 248.689V248.609C235.811 239.25 234.886 229.831 234.089 220.351C233.972 218.962 233.859 217.573 233.747 216.185C233.195 209.357 232.713 202.502 232.301 195.621C232.214 194.232 232.134 192.843 232.061 191.454C231.284 177.682 230.775 163.802 230.535 149.817C230.506 148.428 230.484 147.046 230.462 145.65C230.375 138.822 230.349 131.967 230.382 125.086C230.382 123.697 230.39 122.308 230.412 120.919Z" fill="#D2D2D2"/>
<path d="M295 54.5368C294.999 52.4158 294.156 50.3821 292.657 48.8823C291.159 47.3825 289.126 46.5394 287.006 46.5381H72.6324C70.5199 46.5422 68.4946 47.3813 66.9975 48.8726C65.5003 50.3639 64.6526 52.3867 64.6388 54.5005C57.401 123.559 56.2019 191.396 61.049 256.687C61.6376 264.766 62.3255 272.804 63.1128 280.8C63.5342 285.083 63.9824 289.354 64.4571 293.612C64.5153 294.165 64.5734 294.718 64.6388 295.27C64.6541 297.383 65.5026 299.404 66.9996 300.894C68.4966 302.384 70.5211 303.222 72.6324 303.226H287.006C289.126 303.224 291.159 302.381 292.657 300.881C294.156 299.382 294.999 297.348 295 295.227V295.147C286.331 218.235 286.331 137.309 295 54.6096V54.5368Z" fill="#DCDCDC"/>
<path d="M295 54.5368C294.999 52.4158 294.156 50.3821 292.657 48.8823C291.159 47.3825 289.126 46.5394 287.006 46.5381H72.6324C70.5199 46.5422 68.4946 47.3813 66.9975 48.8726C65.5003 50.3639 64.6526 52.3867 64.6388 54.5005C57.401 123.559 56.2019 191.396 61.049 256.687C61.6376 264.766 62.3255 272.804 63.1128 280.8C63.5342 285.083 63.9824 289.354 64.4571 293.612C64.5153 294.165 64.5734 294.718 64.6388 295.27C64.6541 297.383 65.5026 299.404 66.9996 300.894C68.4966 302.384 70.5211 303.222 72.6324 303.226H287.006C289.126 303.224 291.159 302.381 292.657 300.881C294.156 299.382 294.999 297.348 295 295.227V295.147C286.331 218.235 286.331 137.309 295 54.6096V54.5368ZM293.547 295.27C293.534 296.998 292.839 298.651 291.614 299.868C290.389 301.086 288.733 301.77 287.006 301.771H72.6324C70.8986 301.769 69.2366 301.078 68.0107 299.851C66.7847 298.625 66.0948 296.962 66.0922 295.227V295.147C66.0413 294.681 65.9904 294.209 65.9396 293.743C65.4382 289.293 64.9707 284.831 64.5371 280.356C63.774 272.51 63.0982 264.621 62.5096 256.687C57.6626 191.432 58.8544 123.639 66.0922 54.6096V54.5368C66.0948 52.802 66.7847 51.1389 68.0107 49.9121C69.2366 48.6854 70.8987 47.995 72.6324 47.9924H287.006C288.735 47.993 290.392 48.6777 291.618 49.897C292.843 51.1163 293.536 52.7713 293.547 54.5005C284.877 137.266 284.877 218.279 293.547 295.27Z" fill="#E4E4E4"/>
<path d="M87.409 120.92C86.8575 120.921 86.3291 121.142 85.9397 121.532C85.5502 121.923 85.3315 122.452 85.3315 123.004C85.3315 123.556 85.5502 124.085 85.9397 124.476C86.3291 124.867 86.8575 125.087 87.409 125.088H261.62C262.171 125.087 262.699 124.867 263.089 124.476C263.478 124.085 263.697 123.556 263.697 123.004C263.697 122.452 263.478 121.923 263.089 121.532C262.699 121.142 262.171 120.921 261.62 120.92H87.409Z" fill="#C1C1C1"/>
<path d="M87.409 133.427C86.8573 133.428 86.3285 133.648 85.9387 134.039C85.5489 134.429 85.33 134.959 85.33 135.511C85.33 136.063 85.5489 136.593 85.9387 136.983C86.3285 137.374 86.8573 137.594 87.409 137.595H205.674C206.226 137.594 206.755 137.374 207.145 136.983C207.534 136.593 207.753 136.063 207.753 135.511C207.753 134.959 207.534 134.429 207.145 134.039C206.755 133.648 206.226 133.428 205.674 133.427H87.409Z" fill="#C1C1C1"/>
<path d="M87.409 145.65C86.8573 145.651 86.3285 145.871 85.9387 146.262C85.5489 146.653 85.33 147.183 85.33 147.735C85.33 148.287 85.5489 148.816 85.9387 149.207C86.3285 149.598 86.8573 149.818 87.409 149.819H261.62C262.171 149.818 262.7 149.598 263.09 149.207C263.48 148.816 263.699 148.287 263.699 147.735C263.699 147.183 263.48 146.653 263.09 146.262C262.7 145.871 262.171 145.651 261.62 145.65H87.409Z" fill="#C1C1C1"/>
<path d="M87.409 158.157C86.8575 158.159 86.3291 158.379 85.9397 158.77C85.5502 159.16 85.3315 159.69 85.3315 160.242C85.3315 160.793 85.5502 161.323 85.9397 161.713C86.3291 162.104 86.8575 162.324 87.409 162.326H205.674C206.226 162.324 206.754 162.104 207.144 161.713C207.533 161.323 207.752 160.793 207.752 160.242C207.752 159.69 207.533 159.16 207.144 158.77C206.754 158.379 206.226 158.159 205.674 158.157H87.409Z" fill="#C1C1C1"/>
<path d="M87.409 191.454C86.8575 191.456 86.3291 191.676 85.9397 192.067C85.5502 192.457 85.3315 192.987 85.3315 193.538C85.3315 194.09 85.5502 194.62 85.9397 195.01C86.3291 195.401 86.8575 195.621 87.409 195.623H261.62C262.171 195.621 262.699 195.401 263.089 195.01C263.478 194.62 263.697 194.09 263.697 193.538C263.697 192.987 263.478 192.457 263.089 192.067C262.699 191.676 262.171 191.456 261.62 191.454H87.409Z" fill="#C1C1C1"/>
<path d="M87.409 203.961C86.8573 203.962 86.3285 204.182 85.9387 204.573C85.5489 204.964 85.33 205.493 85.33 206.045C85.33 206.597 85.5489 207.127 85.9387 207.518C86.3285 207.908 86.8573 208.128 87.409 208.13H205.674C206.226 208.128 206.755 207.908 207.145 207.518C207.534 207.127 207.753 206.597 207.753 206.045C207.753 205.493 207.534 204.964 207.145 204.573C206.755 204.182 206.226 203.962 205.674 203.961H87.409Z" fill="#C1C1C1"/>
<path d="M87.409 216.185C86.8573 216.186 86.3285 216.406 85.9387 216.796C85.5489 217.187 85.33 217.717 85.33 218.269C85.33 218.821 85.5489 219.351 85.9387 219.741C86.3285 220.132 86.8573 220.352 87.409 220.353H261.62C262.171 220.352 262.7 220.132 263.09 219.741C263.48 219.351 263.699 218.821 263.699 218.269C263.699 217.717 263.48 217.187 263.09 216.796C262.7 216.406 262.171 216.186 261.62 216.185H87.409Z" fill="#C1C1C1"/>
<path d="M87.409 228.692C86.8575 228.694 86.3291 228.914 85.9397 229.305C85.5502 229.696 85.3315 230.225 85.3315 230.777C85.3315 231.329 85.5502 231.858 85.9397 232.249C86.3291 232.639 86.8575 232.859 87.409 232.861H205.674C206.226 232.859 206.754 232.639 207.144 232.249C207.533 231.858 207.752 231.329 207.752 230.777C207.752 230.225 207.533 229.696 207.144 229.305C206.754 228.914 206.226 228.694 205.674 228.692H87.409Z" fill="#C1C1C1"/>
<path d="M121.879 95.0398H88.605C88.174 95.0393 87.7609 94.8678 87.4562 94.5629C87.1514 94.2579 86.98 93.8445 86.9795 93.4133V88.0787C86.98 87.6475 87.1514 87.234 87.4562 86.9291C87.7609 86.6241 88.174 86.4526 88.605 86.4521H121.879C122.31 86.4526 122.723 86.6241 123.028 86.9291C123.332 87.234 123.504 87.6475 123.504 88.0787V93.4133C123.504 93.8445 123.332 94.2579 123.028 94.5629C122.723 94.8678 122.31 95.0393 121.879 95.0398Z" fill="#6C63FF"/>
<path d="M237.472 266.632L227.28 270.003C225.581 270.564 223.883 271.126 222.184 271.688C220.611 272.206 218.908 272.823 217.224 272.6C216.06 272.446 214.734 271.775 214.371 270.577C214.028 269.443 214.755 268.257 215.636 267.586C218.068 265.735 221.144 267.62 222.867 269.537C224.975 271.882 226.168 274.909 228.145 277.364C229.905 279.566 232.136 281.344 234.674 282.567C239.718 284.951 245.871 284.697 250.37 281.225C255.742 277.078 256.29 269.891 256.318 263.62C256.309 263.337 256.19 263.069 255.986 262.873C255.783 262.676 255.511 262.566 255.228 262.566C254.946 262.566 254.674 262.676 254.471 262.873C254.267 263.069 254.148 263.337 254.138 263.62C254.112 269.303 253.789 276.269 248.611 279.825C243.651 283.232 237.131 282.328 232.565 278.699C230.02 276.676 228.454 274.039 226.783 271.308C225.152 268.642 223.127 266.058 220.058 265.021C218.741 264.543 217.3 264.533 215.978 264.995C214.656 265.457 213.533 266.362 212.801 267.557C212.466 268.12 212.255 268.749 212.182 269.4C212.11 270.052 212.176 270.711 212.378 271.335C212.58 271.959 212.912 272.532 213.353 273.018C213.793 273.503 214.332 273.888 214.933 274.149C218.492 275.846 222.564 273.857 225.991 272.724L238.052 268.736C239.377 268.297 238.809 266.19 237.472 266.632L237.472 266.632Z" fill="#6C63FF"/>
<path d="M207.27 426.97L200.123 429.326L187.64 402.865L198.188 399.388L207.27 426.97Z" fill="#9F616A"/>
<path d="M212.368 432.98L211.881 431.504L210.602 427.614L209.73 424.967L207.346 425.752L206.852 425.716L200.305 425.272L199.433 425.214L198.139 425.127L196.802 425.032L193.067 430.464H193.06C191.663 430.919 190.372 431.647 189.259 432.606C188.146 433.564 187.235 434.735 186.578 436.049C186.498 436.209 186.425 436.369 186.352 436.529C186.172 436.92 186.019 437.323 185.894 437.736C185.329 439.518 185.224 441.414 185.589 443.248C185.683 443.702 185.802 444.151 185.945 444.593L185.967 444.665L186.054 444.935L186.578 444.76L191.17 443.248L207.259 437.947L210.449 436.892L211.43 436.565H211.438L213.342 435.94L212.368 432.98Z" fill="#2F2E41"/>
<path d="M139.528 433.191L132.004 433.191L128.424 404.149L139.529 404.15L139.528 433.191Z" fill="#9F616A"/>
<path d="M127.486 305.882L124.151 311.655C124.151 311.655 120.485 312.657 121.683 324.612C122.529 333.054 122.803 370.852 124.933 395.408C125.819 405.628 127.027 413.554 128.731 416.115L129.78 417.055L140.729 418.102L141.005 418.006L145.026 389.591C145.747 384.49 145.639 379.306 144.706 374.24L143.979 366.241L154.06 325.741C154.06 325.741 164.326 351.698 170.866 376.422C172.441 382.373 178.421 386.158 180.688 391.265C181.448 392.976 182.194 394.634 182.923 396.225C187.718 406.701 190.122 414.327 191.941 414.961H193.394L202.114 412.052L203.83 407.737L190.487 368.423L180.496 304.946C161.458 294.703 143.6 293.563 127.486 305.882Z" fill="#2F2E41"/>
<path d="M182.021 220.351C181.364 218.902 180.591 217.509 179.71 216.184C177.697 213.044 174.899 210.485 171.593 208.76L168.73 208.127L163.6 206.993L160.896 203.961L156.463 198.994H141.203L139.161 203.961L137.446 208.127L136.712 209.902L123.646 216.439C123.639 216.439 123.639 216.439 123.632 216.446C123.806 217.755 123.978 219.056 124.148 220.351C124.518 223.165 124.867 225.945 125.194 228.691C125.361 230.088 125.521 231.476 125.674 232.858C126.16 237.192 126.579 241.451 126.931 245.634C127.243 249.372 127.493 253.056 127.679 256.687C128.134 264.933 128.168 273.197 127.781 281.447C127.679 283.388 129.605 285.599 129.452 287.497C129.198 290.594 126.807 293.343 126.386 296.303C126.124 298.121 126.24 300.055 125.783 301.771C125.655 302.273 125.465 302.757 125.216 303.211C125.216 303.218 125.208 303.218 125.208 303.225C119.976 312.577 124.082 308.112 123.595 310.213L123.828 310.271C123.937 310.301 124.271 310.388 124.809 310.511C127.883 311.246 140.556 299.342 149.066 299.342C154.174 299.342 167.698 307.748 172.225 308.359C175.808 308.839 179.005 309.275 180.909 307.595C181.462 307.106 181.884 306.486 182.137 305.792L182.159 305.727L182.152 305.661L181.97 303.225L181.861 301.771L180.306 280.901C179.438 279.824 178.889 278.524 178.722 277.15C178.555 275.776 178.777 274.382 179.362 273.128L179.681 272.452L178.504 256.687L178.286 253.742L178.206 252.746V252.738L177.639 245.125L179.005 240.966V240.959L181.665 232.858L183.031 228.691L183.889 226.074L183.947 225.899C183.489 223.991 182.844 222.132 182.021 220.351Z" fill="#6C63FF"/>
<path d="M195.279 295.546L180.629 257.66L173.825 243.826L186.909 236.593L197.446 255.171L204.51 293.988C205.622 294.747 206.482 295.822 206.978 297.074C207.475 298.327 207.586 299.699 207.298 301.015C207.01 302.33 206.334 303.53 205.36 304.459C204.385 305.388 203.154 306.004 201.827 306.228C200.499 306.452 199.135 306.274 197.909 305.717C196.684 305.159 195.653 304.248 194.949 303.099C194.245 301.951 193.9 300.618 193.959 299.272C194.018 297.926 194.477 296.629 195.279 295.546H195.279Z" fill="#9F616A"/>
<path d="M195.574 243.352L191.824 240.923L187.515 232.859L185.291 228.692L183.889 226.074L183.293 224.954L176.557 220.352L172.007 217.239L168.301 220.352L166.535 221.835L168.265 228.692L169.311 232.859L171.593 241.897L178.286 253.743L179.95 256.688L180.902 258.382L180.909 258.397L181.04 258.622L197.95 257.917L198.481 257.895L198.51 256.688L198.524 256.251C198.532 256.033 198.532 255.815 198.532 255.597C198.529 251.338 197.516 247.141 195.574 243.352Z" fill="#6C63FF"/>
<path d="M67.5853 280.479L97.5548 253.076L107.97 241.713L119.452 251.29L105.973 267.855L72.3851 288.522C72.081 289.835 71.3918 291.026 70.4059 291.943C69.42 292.861 68.1825 293.462 66.8524 293.671C65.5222 293.879 64.1603 293.685 62.9414 293.112C61.7225 292.54 60.7024 291.617 60.0122 290.46C59.3219 289.303 58.9931 287.967 59.0678 286.622C59.1425 285.276 59.6174 283.984 60.4316 282.911C61.2457 281.839 62.3618 281.034 63.6366 280.6C64.9113 280.167 66.2864 280.125 67.5853 280.479H67.5853Z" fill="#9F616A"/>
<path d="M129.452 232.858L129.394 228.692L129.285 220.351L129.242 217.115L129.118 217.028C128.441 216.584 127.674 216.296 126.873 216.184C126.168 216.067 125.448 216.067 124.743 216.184C124.372 216.242 124.005 216.327 123.646 216.439C123.639 216.439 123.639 216.439 123.632 216.446C121.477 217.22 119.575 218.568 118.13 220.344L118.123 220.351C115.944 222.945 114.012 225.737 112.353 228.692C111.532 230.088 110.747 231.498 110.013 232.858C107.237 238.028 105.239 242.508 105.203 242.588L96.9038 253.371L97.0201 253.568L98.8441 256.687L105.53 268.125L106.591 269.943L109.301 268.496C112.461 266.809 114.952 264.096 116.365 260.803L117.331 257.109L117.687 256.687L126.931 245.634L129.576 242.464L129.452 232.858Z" fill="#6C63FF"/>
<path d="M161.125 184.765C162.363 177.133 157.184 169.943 149.557 168.705C141.931 167.466 134.745 172.649 133.508 180.28C132.27 187.911 137.449 195.102 145.076 196.34C152.702 197.578 159.888 192.396 161.125 184.765Z" fill="#9F616A"/>
<path d="M133.793 173.345C133.172 171.167 131.928 169.301 132.55 169.301C133.172 169.301 133.483 167.745 133.483 167.745C133.483 167.745 134.104 167.434 134.415 167.745C134.726 168.056 135.037 165.568 135.037 165.568C135.037 165.568 135.348 164.635 135.659 165.257C135.97 165.879 135.97 165.568 136.28 164.635C136.591 163.701 138.146 163.079 138.146 163.079C138.146 163.079 144.052 163.39 144.985 162.146C145.918 160.902 156.487 161.835 158.663 163.39C160.84 164.946 169.413 167.726 164.326 176.452C167.233 181.542 162.893 190.621 161.772 191.698C159.999 193.401 158.772 194.016 150.382 195.686C148.74 196.013 144.706 182.269 144.706 182.269C144.706 182.269 134.415 175.522 133.793 173.345Z" fill="#2F2E41"/>
<path d="M139.982 432.056L139.532 431.874L131.436 428.573L130.194 428.071L124.947 432.056H124.94C121.975 432.06 119.133 433.24 117.038 435.338C114.942 437.436 113.765 440.281 113.763 443.247V443.611H142.489V432.056H139.982Z" fill="#2F2E41"/>
<path d="M224.416 444.113C224.417 444.227 224.395 444.341 224.352 444.446C224.309 444.552 224.245 444.648 224.165 444.729C224.084 444.81 223.989 444.874 223.884 444.918C223.779 444.963 223.666 444.985 223.552 444.986H75.8153C75.585 444.986 75.3641 444.894 75.2012 444.731C75.0384 444.568 74.9469 444.347 74.9469 444.117C74.9469 443.887 75.0384 443.665 75.2012 443.503C75.3641 443.34 75.585 443.248 75.8153 443.248H223.552C223.781 443.249 224.001 443.34 224.163 443.502C224.325 443.664 224.416 443.884 224.416 444.113Z" fill="#CCCCCC"/>
<path d="M71.8911 0C70.7478 20.3365 63.2772 39.806 50.5253 55.6825C37.7734 71.5589 20.3788 83.0473 0.77707 88.539C0.755269 89.048 0.733463 89.557 0.726196 90.066C20.734 84.5584 38.5075 72.9014 51.5374 56.7408C64.5673 40.5802 72.1954 20.7326 73.3445 0H71.8911Z" fill="white"/>
<path d="M49.6326 0C46.2555 12.8393 40.3023 24.8565 32.1356 35.3199C23.9688 45.7834 13.7593 54.4742 2.1287 60.8633C2.0851 61.4377 2.05605 62.0049 2.02698 62.5794C14.0806 56.098 24.6652 47.1933 33.1163 36.4243C41.5675 25.6552 47.7026 13.2543 51.1368 0H49.6326Z" fill="white"/>
</g>
<defs>
<clipPath id="clip0_4525_15">
<rect width="295" height="445" fill="white"/>
</clipPath>
</defs>
</svg>

