<svg width="395" height="343" viewBox="0 0 395 343" fill="none" xmlns="http://www.w3.org/2000/svg">
<g clip-path="url(#clip0_4447_2)">
<path d="M355.807 178.503C355.858 220.945 339.418 261.755 309.943 292.353C308.166 294.21 306.341 296.022 304.469 297.789C301.615 300.497 298.666 303.101 295.621 305.599C267.134 329.02 231.572 342.18 194.671 342.958C193.441 342.986 192.207 343 190.968 343C161.539 343 124.523 327.314 90.9321 305.599C88.1529 303.803 85.3985 301.965 82.6688 300.085C81.3929 299.215 80.1232 298.332 78.8597 297.437C65.904 288.308 53.6064 278.282 42.0577 267.435C34.4964 260.353 27.4058 252.787 20.8312 244.785C-4.9793 213.014 -10.6722 184.387 26.1251 178.503C30.4818 177.808 34.71 177.066 38.81 176.276C44.7488 175.137 50.4324 173.907 55.8608 172.586C63.1729 170.812 70.0427 168.889 76.4702 166.817C78.6323 166.122 80.7449 165.414 82.808 164.692C113.309 154.001 133.724 140.06 147.62 124.934C149.977 122.374 152.15 119.783 154.138 117.161C157.181 113.169 159.945 108.974 162.411 104.604C165.814 98.5324 168.672 92.1724 170.953 85.5982L171.078 85.2371C182.134 53.4108 178.77 23.8903 190.968 14.01C243.109 -28.229 308.023 31.9233 338.491 102.859C340.027 106.433 341.472 110.029 342.825 113.646C343.433 115.262 344.019 116.881 344.583 118.503C346.068 122.73 347.415 126.968 348.624 131.217C349.088 132.838 349.531 134.456 349.951 136.074C350.401 137.819 350.833 139.56 351.232 141.301C354.197 154.047 355.807 166.618 355.807 178.503Z" fill="#DFDFDF"/>
<path d="M194.671 342.958C193.441 342.986 192.207 343 190.968 343C161.539 343 124.523 327.314 90.9321 305.599C88.1529 303.803 85.3985 301.965 82.6688 300.085L85.0629 285.547L157.539 275.944L193.914 303.701L194.671 342.958Z" fill="#2F2E41"/>
<path d="M198.16 83.3618H187.832C187.512 83.362 187.205 83.4888 186.979 83.7145C186.753 83.9402 186.626 84.2463 186.625 84.5655V94.8764C186.626 95.0342 186.657 95.1905 186.718 95.3362C186.778 95.4819 186.867 95.6143 186.979 95.7256C187.091 95.837 187.224 95.9253 187.371 95.9853C187.517 96.0454 187.674 96.0761 187.832 96.0756H198.16C198.479 96.0757 198.785 95.9496 199.011 95.7248C199.237 95.5 199.365 95.1949 199.366 94.8764V84.5655C199.365 84.2466 199.238 83.9409 199.012 83.7154C198.786 83.4898 198.479 83.3627 198.16 83.3618Z" fill="white"/>
<path d="M198.16 100.933H187.832C187.512 100.933 187.205 101.06 186.979 101.285C186.753 101.511 186.626 101.817 186.625 102.136V112.447C186.626 112.605 186.657 112.761 186.718 112.907C186.778 113.053 186.867 113.185 186.979 113.296C187.091 113.408 187.224 113.496 187.371 113.556C187.517 113.616 187.674 113.647 187.832 113.646H198.16C198.479 113.647 198.785 113.52 199.011 113.296C199.237 113.071 199.365 112.766 199.366 112.447V102.136C199.365 101.817 199.238 101.512 199.012 101.286C198.786 101.061 198.479 100.934 198.16 100.933Z" fill="#E6E6E6"/>
<path d="M198.16 118.503H187.832C187.512 118.504 187.205 118.63 186.979 118.856C186.753 119.082 186.626 119.388 186.625 119.707V130.014C186.625 130.172 186.656 130.328 186.717 130.475C186.777 130.621 186.866 130.754 186.978 130.865C187.09 130.977 187.223 131.066 187.37 131.126C187.516 131.187 187.673 131.218 187.832 131.217H198.16C198.48 131.217 198.786 131.09 199.012 130.865C199.239 130.639 199.366 130.333 199.366 130.014V119.707C199.365 119.388 199.238 119.083 199.012 118.857C198.786 118.631 198.479 118.504 198.16 118.503Z" fill="#E6E6E6"/>
<path d="M199.347 137.065C199.296 136.787 199.149 136.537 198.932 136.356C198.715 136.175 198.442 136.075 198.16 136.074H187.832C187.512 136.074 187.205 136.201 186.979 136.427C186.753 136.652 186.626 136.958 186.625 137.278V147.584C186.625 147.742 186.656 147.899 186.717 148.045C186.777 148.191 186.866 148.324 186.978 148.436C187.09 148.548 187.223 148.636 187.37 148.697C187.516 148.757 187.673 148.788 187.832 148.788H198.16C198.48 148.787 198.786 148.661 199.012 148.435C199.239 148.209 199.366 147.903 199.366 147.584V137.278C199.367 137.206 199.361 137.135 199.347 137.065Z" fill="#E6E6E6"/>
<path d="M198.628 153.737C198.48 153.676 198.32 153.644 198.16 153.645H187.832C187.673 153.644 187.516 153.675 187.37 153.736C187.223 153.796 187.09 153.885 186.978 153.996C186.866 154.108 186.777 154.241 186.717 154.387C186.656 154.533 186.625 154.69 186.626 154.848V165.155C186.625 165.313 186.655 165.47 186.716 165.616C186.776 165.762 186.865 165.895 186.977 166.007C187.089 166.119 187.223 166.208 187.369 166.268C187.516 166.328 187.673 166.359 187.832 166.358H198.16C198.48 166.358 198.786 166.231 199.013 166.006C199.239 165.78 199.366 165.474 199.366 165.155V154.848C199.365 154.611 199.295 154.38 199.164 154.182C199.033 153.985 198.847 153.83 198.628 153.737Z" fill="#E6E6E6"/>
<path d="M219.855 83.3618H209.527C209.207 83.362 208.9 83.4888 208.674 83.7145C208.448 83.9402 208.321 84.2463 208.321 84.5655V94.8764C208.321 95.0342 208.352 95.1905 208.413 95.3362C208.474 95.4819 208.562 95.6143 208.674 95.7256C208.787 95.837 208.919 95.9253 209.066 95.9853C209.212 96.0454 209.369 96.0761 209.527 96.0756H219.855C220.174 96.0757 220.48 95.9496 220.706 95.7248C220.932 95.5 221.06 95.1949 221.061 94.8764V84.5655C221.06 84.2466 220.933 83.9409 220.707 83.7154C220.481 83.4898 220.174 83.3627 219.855 83.3618Z" fill="#E6E6E6"/>
<path d="M219.855 100.933H209.527C209.207 100.933 208.9 101.06 208.674 101.285C208.448 101.511 208.321 101.817 208.321 102.136V112.447C208.321 112.605 208.352 112.761 208.413 112.907C208.474 113.053 208.562 113.185 208.674 113.296C208.787 113.408 208.919 113.496 209.066 113.556C209.212 113.616 209.369 113.647 209.527 113.646H219.855C220.174 113.647 220.48 113.52 220.706 113.296C220.932 113.071 221.06 112.766 221.061 112.447V102.136C221.06 101.817 220.933 101.512 220.707 101.286C220.481 101.061 220.174 100.934 219.855 100.933Z" fill="#8489B3"/>
<path d="M219.855 118.503H209.527C209.207 118.504 208.9 118.63 208.674 118.856C208.448 119.082 208.321 119.388 208.321 119.707V130.014C208.32 130.172 208.351 130.328 208.412 130.475C208.472 130.621 208.561 130.754 208.673 130.865C208.785 130.977 208.918 131.066 209.065 131.126C209.211 131.187 209.368 131.218 209.527 131.217H219.855C220.175 131.217 220.481 131.09 220.708 130.865C220.934 130.639 221.061 130.333 221.061 130.014V119.707C221.06 119.388 220.933 119.083 220.707 118.857C220.481 118.631 220.174 118.504 219.855 118.503Z" fill="#8489B3"/>
<path d="M219.855 136.074H209.527C209.274 136.074 209.027 136.154 208.823 136.302C208.618 136.45 208.465 136.658 208.385 136.898C208.343 137.02 208.321 137.148 208.321 137.278V147.584C208.32 147.742 208.351 147.899 208.412 148.045C208.472 148.191 208.561 148.324 208.673 148.436C208.785 148.548 208.918 148.636 209.065 148.697C209.211 148.757 209.368 148.788 209.527 148.788H219.855C220.175 148.787 220.481 148.661 220.708 148.435C220.934 148.209 221.061 147.903 221.061 147.584V137.278C221.06 136.959 220.933 136.653 220.707 136.427C220.481 136.202 220.174 136.075 219.855 136.074Z" fill="#8489B3"/>
<path d="M219.855 153.645H209.527C209.368 153.644 209.211 153.675 209.065 153.736C208.918 153.796 208.785 153.885 208.673 153.996C208.561 154.108 208.472 154.241 208.412 154.387C208.351 154.533 208.32 154.69 208.321 154.848V165.155C208.32 165.313 208.351 165.469 208.412 165.616C208.472 165.762 208.561 165.895 208.673 166.006C208.785 166.118 208.918 166.207 209.065 166.267C209.211 166.328 209.368 166.359 209.527 166.358H219.855C220.175 166.358 220.481 166.231 220.708 166.006C220.934 165.78 221.061 165.474 221.061 165.155V154.848C221.061 154.529 220.934 154.223 220.708 153.997C220.481 153.772 220.175 153.645 219.855 153.645Z" fill="#E6E6E6"/>
<path d="M241.55 83.3618H231.222C230.902 83.362 230.595 83.4888 230.369 83.7145C230.143 83.9402 230.016 84.2463 230.016 84.5655V94.8764C230.016 95.0342 230.047 95.1905 230.108 95.3362C230.169 95.4819 230.258 95.6143 230.37 95.7256C230.482 95.837 230.615 95.9253 230.761 95.9853C230.907 96.0454 231.064 96.0761 231.222 96.0756H241.55C241.869 96.0757 242.175 95.9496 242.401 95.7248C242.628 95.5 242.755 95.1949 242.756 94.8764V84.5655C242.755 84.2466 242.628 83.9409 242.402 83.7154C242.176 83.4898 241.87 83.3627 241.55 83.3618Z" fill="#8489B3"/>
<path d="M241.55 100.933H231.222C230.902 100.933 230.595 101.06 230.369 101.285C230.143 101.511 230.016 101.817 230.016 102.136V112.447C230.016 112.605 230.047 112.761 230.108 112.907C230.169 113.053 230.258 113.185 230.37 113.296C230.482 113.408 230.615 113.496 230.761 113.556C230.907 113.616 231.064 113.647 231.222 113.646H241.55C241.869 113.647 242.175 113.52 242.401 113.296C242.628 113.071 242.755 112.766 242.756 112.447V102.136C242.755 101.817 242.628 101.512 242.402 101.286C242.176 101.061 241.87 100.934 241.55 100.933Z" fill="#8489B3"/>
<path d="M241.55 118.503H231.222C230.902 118.504 230.595 118.63 230.369 118.856C230.143 119.082 230.016 119.388 230.016 119.707V130.014C230.015 130.172 230.046 130.328 230.107 130.475C230.167 130.621 230.256 130.754 230.368 130.865C230.48 130.977 230.614 131.066 230.76 131.126C230.907 131.187 231.064 131.218 231.222 131.217H241.55C241.87 131.217 242.177 131.09 242.403 130.865C242.629 130.639 242.756 130.333 242.756 130.014V119.707C242.755 119.388 242.628 119.083 242.402 118.857C242.176 118.631 241.87 118.504 241.55 118.503Z" fill="#E6E6E6"/>
<path d="M241.55 136.074H231.222C230.902 136.074 230.595 136.201 230.369 136.427C230.143 136.652 230.016 136.958 230.016 137.278V147.584C230.015 147.742 230.046 147.899 230.107 148.045C230.167 148.191 230.256 148.324 230.368 148.436C230.48 148.548 230.614 148.636 230.76 148.697C230.907 148.757 231.063 148.788 231.222 148.788H241.55C241.87 148.787 242.177 148.661 242.403 148.435C242.629 148.209 242.756 147.903 242.756 147.584V137.278C242.755 136.959 242.628 136.653 242.402 136.427C242.176 136.202 241.87 136.075 241.55 136.074Z" fill="#8489B3"/>
<path d="M241.55 153.645H231.222C231.063 153.644 230.907 153.675 230.76 153.736C230.614 153.796 230.48 153.885 230.368 153.996C230.256 154.108 230.167 154.241 230.107 154.387C230.046 154.533 230.015 154.69 230.016 154.848V165.155C230.015 165.313 230.046 165.469 230.107 165.616C230.167 165.762 230.256 165.895 230.368 166.006C230.48 166.118 230.614 166.207 230.76 166.267C230.907 166.328 231.063 166.359 231.222 166.358H241.55C241.87 166.358 242.177 166.231 242.403 166.006C242.629 165.78 242.756 165.474 242.756 165.155V154.848C242.756 154.529 242.629 154.223 242.403 153.997C242.177 153.772 241.87 153.645 241.55 153.645Z" fill="#8489B3"/>
<path d="M263.245 83.3618H252.917C252.597 83.362 252.29 83.4888 252.064 83.7145C251.838 83.9402 251.711 84.2463 251.711 84.5655V94.8764C251.711 95.0342 251.742 95.1905 251.803 95.3362C251.864 95.4819 251.953 95.6143 252.065 95.7256C252.177 95.837 252.31 95.9253 252.456 95.9853C252.602 96.0454 252.759 96.0761 252.917 96.0756H263.245C263.564 96.0757 263.87 95.9496 264.096 95.7248C264.323 95.5 264.45 95.1949 264.451 94.8764V84.5655C264.45 84.2466 264.323 83.9409 264.097 83.7154C263.871 83.4898 263.565 83.3627 263.245 83.3618Z" fill="#8489B3"/>
<path d="M263.245 100.933H252.917C252.597 100.933 252.29 101.06 252.064 101.285C251.838 101.511 251.711 101.817 251.711 102.136V112.447C251.711 112.605 251.742 112.761 251.803 112.907C251.864 113.053 251.953 113.185 252.065 113.296C252.177 113.408 252.31 113.496 252.456 113.556C252.602 113.616 252.759 113.647 252.917 113.646H263.245C263.564 113.647 263.87 113.52 264.096 113.296C264.323 113.071 264.45 112.766 264.451 112.447V102.136C264.45 101.817 264.323 101.512 264.097 101.286C263.871 101.061 263.565 100.934 263.245 100.933Z" fill="white"/>
<path d="M263.245 118.503H252.917C252.597 118.504 252.29 118.63 252.064 118.856C251.838 119.082 251.711 119.388 251.711 119.707V130.014C251.71 130.172 251.741 130.328 251.802 130.475C251.862 130.621 251.951 130.754 252.063 130.865C252.175 130.977 252.308 131.066 252.455 131.126C252.601 131.187 252.758 131.218 252.917 131.217H263.245C263.565 131.217 263.872 131.09 264.098 130.865C264.324 130.639 264.451 130.333 264.451 130.014V119.707C264.45 119.388 264.323 119.083 264.097 118.857C263.871 118.631 263.565 118.504 263.245 118.503Z" fill="white"/>
<path d="M263.245 136.074H252.917C252.597 136.074 252.29 136.201 252.064 136.427C251.838 136.652 251.711 136.958 251.711 137.278V147.584C251.71 147.742 251.741 147.899 251.802 148.045C251.862 148.191 251.951 148.324 252.063 148.436C252.175 148.548 252.308 148.636 252.455 148.697C252.601 148.757 252.758 148.788 252.917 148.788H263.245C263.565 148.787 263.872 148.661 264.098 148.435C264.324 148.209 264.451 147.903 264.451 147.584V137.278C264.45 136.959 264.323 136.653 264.097 136.427C263.871 136.202 263.565 136.075 263.245 136.074Z" fill="#E6E6E6"/>
<path d="M263.245 153.645H252.917C252.758 153.644 252.601 153.675 252.455 153.736C252.308 153.796 252.175 153.885 252.063 153.996C251.951 154.108 251.862 154.241 251.802 154.387C251.741 154.533 251.71 154.69 251.711 154.848V165.155C251.71 165.313 251.741 165.469 251.802 165.616C251.862 165.762 251.951 165.895 252.063 166.006C252.175 166.118 252.308 166.207 252.455 166.267C252.601 166.328 252.758 166.359 252.917 166.358H263.245C263.565 166.358 263.872 166.231 264.098 166.006C264.324 165.78 264.451 165.474 264.451 165.155V154.848C264.451 154.529 264.324 154.223 264.098 153.997C263.872 153.772 263.565 153.645 263.245 153.645Z" fill="#8489B3"/>
<path d="M284.94 83.3618H274.608C274.288 83.3629 273.983 83.4902 273.757 83.7159C273.532 83.9415 273.406 84.247 273.406 84.5655V94.8764C273.406 95.1944 273.533 95.4994 273.758 95.7243C273.983 95.9492 274.289 96.0755 274.608 96.0756H284.94C285.259 96.0757 285.566 95.9496 285.792 95.7248C286.018 95.5 286.145 95.1949 286.147 94.8764V84.5655C286.146 84.2466 286.018 83.9409 285.792 83.7154C285.566 83.4898 285.26 83.3627 284.94 83.3618Z" fill="white"/>
<path d="M284.94 100.933H274.608C274.288 100.934 273.983 101.061 273.757 101.287C273.532 101.512 273.406 101.818 273.406 102.136V112.447C273.406 112.765 273.533 113.07 273.758 113.295C273.983 113.52 274.289 113.646 274.608 113.646H284.94C285.259 113.647 285.566 113.52 285.792 113.296C286.018 113.071 286.145 112.766 286.147 112.447V102.136C286.146 101.817 286.018 101.512 285.792 101.286C285.566 101.061 285.26 100.934 284.94 100.933Z" fill="white"/>
<path d="M284.94 118.503H274.608C274.288 118.505 273.983 118.632 273.757 118.858C273.532 119.083 273.406 119.389 273.406 119.707V130.014C273.405 130.171 273.436 130.328 273.496 130.474C273.557 130.62 273.645 130.752 273.757 130.864C273.868 130.976 274.001 131.065 274.147 131.125C274.293 131.186 274.449 131.217 274.608 131.217H284.94C285.26 131.217 285.567 131.09 285.793 130.865C286.019 130.639 286.146 130.333 286.147 130.014V119.707C286.146 119.388 286.018 119.083 285.792 118.857C285.566 118.631 285.26 118.504 284.94 118.503Z" fill="white"/>
<path d="M284.94 136.074H274.608C274.288 136.075 273.983 136.202 273.757 136.428C273.532 136.654 273.406 136.959 273.406 137.278V147.584C273.405 147.742 273.436 147.898 273.496 148.044C273.557 148.19 273.645 148.323 273.757 148.434C273.868 148.546 274.001 148.635 274.147 148.696C274.293 148.756 274.449 148.787 274.608 148.788H284.94C285.26 148.787 285.567 148.661 285.793 148.435C286.019 148.209 286.146 147.903 286.147 147.584V137.278C286.146 136.959 286.018 136.653 285.792 136.427C285.566 136.202 285.26 136.075 284.94 136.074Z" fill="#8489B3"/>
<path d="M284.94 153.645H274.608C274.449 153.645 274.293 153.676 274.147 153.737C274.001 153.797 273.868 153.886 273.757 153.998C273.645 154.11 273.557 154.242 273.496 154.388C273.436 154.534 273.405 154.691 273.406 154.848V165.155C273.405 165.312 273.436 165.469 273.496 165.615C273.557 165.761 273.645 165.893 273.757 166.005C273.868 166.117 274.001 166.206 274.147 166.266C274.293 166.327 274.449 166.358 274.608 166.358H284.94C285.26 166.358 285.567 166.231 285.793 166.006C286.019 165.78 286.146 165.474 286.147 165.155V154.848C286.146 154.529 286.019 154.223 285.793 153.997C285.567 153.772 285.26 153.645 284.94 153.645Z" fill="#E6E6E6"/>
<path d="M306.635 83.3618H296.303C295.984 83.3629 295.678 83.4902 295.453 83.7159C295.227 83.9415 295.101 84.247 295.101 84.5655V94.8764C295.101 95.1944 295.228 95.4994 295.453 95.7243C295.678 95.9492 295.984 96.0755 296.303 96.0756H306.635C306.955 96.0757 307.261 95.9496 307.487 95.7248C307.713 95.5 307.841 95.1949 307.842 94.8764V84.5655C307.841 84.2466 307.713 83.9409 307.487 83.7154C307.261 83.4899 306.955 83.3627 306.635 83.3618Z" fill="white"/>
<path d="M306.635 100.933H296.303C295.984 100.934 295.678 101.061 295.453 101.287C295.227 101.512 295.101 101.818 295.101 102.136V112.447C295.101 112.765 295.228 113.07 295.453 113.295C295.678 113.52 295.984 113.646 296.303 113.646H306.635C306.955 113.647 307.261 113.52 307.487 113.296C307.713 113.071 307.841 112.766 307.842 112.447V102.136C307.841 101.817 307.713 101.512 307.487 101.286C307.261 101.061 306.955 100.934 306.635 100.933Z" fill="white"/>
<path d="M306.635 118.503H296.303C295.984 118.505 295.678 118.632 295.453 118.858C295.227 119.083 295.101 119.389 295.101 119.707V130.014C295.101 130.171 295.131 130.328 295.192 130.474C295.252 130.62 295.34 130.752 295.452 130.864C295.563 130.976 295.696 131.065 295.842 131.125C295.988 131.186 296.145 131.217 296.303 131.217H306.635C306.955 131.217 307.262 131.09 307.488 130.865C307.714 130.639 307.842 130.333 307.842 130.014V119.707C307.841 119.388 307.713 119.083 307.487 118.857C307.261 118.631 306.955 118.504 306.635 118.503Z" fill="#8489B3"/>
<path d="M306.635 136.074H296.303C295.984 136.075 295.678 136.202 295.453 136.428C295.227 136.654 295.101 136.959 295.101 137.278V147.584C295.101 147.742 295.131 147.898 295.192 148.044C295.252 148.19 295.34 148.323 295.452 148.434C295.563 148.546 295.696 148.635 295.842 148.696C295.988 148.756 296.145 148.787 296.303 148.788H306.635C306.955 148.787 307.262 148.661 307.488 148.435C307.714 148.209 307.842 147.903 307.842 147.584V137.278C307.841 136.959 307.713 136.653 307.487 136.427C307.261 136.202 306.955 136.075 306.635 136.074Z" fill="#E6E6E6"/>
<path d="M306.635 153.645H296.303C296.145 153.645 295.988 153.676 295.842 153.737C295.696 153.797 295.563 153.886 295.452 153.998C295.34 154.11 295.252 154.242 295.192 154.388C295.131 154.534 295.101 154.691 295.101 154.848V165.155C295.101 165.312 295.131 165.469 295.192 165.615C295.252 165.761 295.34 165.893 295.452 166.005C295.563 166.117 295.696 166.206 295.842 166.266C295.988 166.327 296.145 166.358 296.303 166.358H306.635C306.955 166.358 307.262 166.231 307.488 166.006C307.714 165.78 307.842 165.474 307.842 165.155V154.848C307.842 154.529 307.714 154.223 307.488 153.997C307.262 153.772 306.955 153.645 306.635 153.645Z" fill="white"/>
<path d="M328.33 83.3618H317.998C317.679 83.3629 317.373 83.4902 317.148 83.7159C316.922 83.9415 316.796 84.247 316.796 84.5655V94.8764C316.796 95.1944 316.923 95.4994 317.148 95.7243C317.374 95.9492 317.679 96.0755 317.998 96.0756H328.33C328.65 96.0757 328.956 95.9496 329.182 95.7248C329.408 95.5 329.536 95.1949 329.537 94.8764V84.5655C329.536 84.2466 329.408 83.9409 329.182 83.7154C328.956 83.4899 328.65 83.3627 328.33 83.3618Z" fill="#8489B3"/>
<path d="M328.33 100.933H317.998C317.679 100.934 317.373 101.061 317.148 101.287C316.922 101.512 316.796 101.818 316.796 102.136V112.447C316.796 112.765 316.923 113.07 317.148 113.295C317.374 113.52 317.679 113.646 317.998 113.646H328.33C328.65 113.647 328.956 113.52 329.182 113.296C329.408 113.071 329.536 112.766 329.537 112.447V102.136C329.536 101.817 329.408 101.512 329.182 101.286C328.956 101.061 328.65 100.934 328.33 100.933Z" fill="#8489B3"/>
<path d="M328.33 118.503H317.998C317.679 118.505 317.373 118.632 317.148 118.858C316.922 119.083 316.796 119.389 316.796 119.707V130.014C316.796 130.171 316.826 130.328 316.887 130.474C316.947 130.62 317.035 130.752 317.147 130.864C317.258 130.976 317.391 131.065 317.537 131.125C317.683 131.186 317.84 131.217 317.998 131.217H328.33C328.65 131.217 328.957 131.09 329.183 130.865C329.409 130.639 329.537 130.333 329.537 130.014V119.707C329.536 119.388 329.408 119.083 329.182 118.857C328.956 118.631 328.65 118.504 328.33 118.503Z" fill="#E6E6E6"/>
<path d="M328.33 136.074H317.998C317.679 136.075 317.373 136.202 317.148 136.428C316.922 136.654 316.796 136.959 316.796 137.278V147.584C316.796 147.742 316.826 147.898 316.887 148.044C316.947 148.19 317.035 148.323 317.147 148.434C317.258 148.546 317.391 148.635 317.537 148.696C317.683 148.756 317.84 148.787 317.998 148.788H328.33C328.65 148.787 328.957 148.661 329.183 148.435C329.409 148.209 329.537 147.903 329.537 147.584V137.278C329.536 136.959 329.408 136.653 329.182 136.427C328.956 136.202 328.65 136.075 328.33 136.074Z" fill="white"/>
<path d="M328.33 153.645H317.998C317.84 153.645 317.683 153.676 317.537 153.737C317.391 153.797 317.258 153.886 317.147 153.998C317.035 154.11 316.947 154.242 316.887 154.388C316.826 154.534 316.796 154.691 316.796 154.848V165.155C316.796 165.312 316.826 165.469 316.887 165.615C316.947 165.761 317.035 165.893 317.147 166.005C317.258 166.117 317.391 166.206 317.537 166.266C317.683 166.327 317.84 166.358 317.998 166.358H328.33C328.65 166.358 328.957 166.231 329.183 166.006C329.409 165.78 329.537 165.474 329.537 165.155V154.848C329.537 154.529 329.409 154.223 329.183 153.997C328.957 153.772 328.65 153.645 328.33 153.645Z" fill="#8489B3"/>
<path d="M350.025 83.3618H339.693C339.374 83.3629 339.068 83.4902 338.843 83.7159C338.618 83.9415 338.491 84.247 338.491 84.5655V94.8764C338.491 95.1944 338.618 95.4994 338.843 95.7243C339.069 95.9492 339.374 96.0755 339.693 96.0756H350.025C350.345 96.0757 350.651 95.9496 350.877 95.7248C351.103 95.5 351.231 95.1949 351.232 94.8764V84.5655C351.231 84.2466 351.103 83.9409 350.877 83.7154C350.651 83.4899 350.345 83.3627 350.025 83.3618Z" fill="#8489B3"/>
<path d="M350.025 100.933H339.693C339.374 100.934 339.068 101.061 338.843 101.287C338.618 101.512 338.491 101.818 338.491 102.136V112.447C338.491 112.765 338.618 113.07 338.843 113.295C339.069 113.52 339.374 113.646 339.693 113.646H350.025C350.345 113.647 350.651 113.52 350.877 113.296C351.103 113.071 351.231 112.766 351.232 112.447V102.136C351.231 101.817 351.103 101.512 350.877 101.286C350.651 101.061 350.345 100.934 350.025 100.933Z" fill="#8489B3"/>
<path d="M350.025 118.503H339.693C339.374 118.505 339.068 118.632 338.843 118.858C338.618 119.083 338.491 119.389 338.491 119.707V130.014C338.491 130.171 338.522 130.328 338.582 130.474C338.642 130.62 338.73 130.752 338.842 130.864C338.954 130.976 339.086 131.065 339.232 131.125C339.378 131.186 339.535 131.217 339.693 131.217H350.025C350.345 131.217 350.652 131.09 350.878 130.865C351.104 130.639 351.232 130.333 351.232 130.014V119.707C351.231 119.388 351.103 119.083 350.877 118.857C350.651 118.631 350.345 118.504 350.025 118.503Z" fill="#E6E6E6"/>
<path d="M350.025 136.074H339.693C339.374 136.075 339.068 136.202 338.843 136.428C338.618 136.654 338.491 136.959 338.491 137.278V147.584C338.491 147.742 338.522 147.898 338.582 148.044C338.642 148.19 338.73 148.323 338.842 148.434C338.954 148.546 339.086 148.635 339.232 148.696C339.378 148.756 339.535 148.787 339.693 148.788H350.025C350.345 148.787 350.652 148.661 350.878 148.435C351.104 148.209 351.232 147.903 351.232 147.584V137.278C351.231 136.959 351.103 136.653 350.877 136.427C350.651 136.202 350.345 136.075 350.025 136.074Z" fill="#8489B3"/>
<path d="M350.025 153.645H339.693C339.535 153.645 339.378 153.676 339.232 153.737C339.086 153.797 338.954 153.886 338.842 153.998C338.73 154.11 338.642 154.242 338.582 154.388C338.522 154.534 338.491 154.691 338.491 154.848V165.155C338.491 165.312 338.522 165.469 338.582 165.615C338.642 165.761 338.73 165.893 338.842 166.005C338.954 166.117 339.086 166.206 339.232 166.266C339.378 166.327 339.535 166.358 339.693 166.358H350.025C350.345 166.358 350.652 166.231 350.878 166.006C351.104 165.78 351.232 165.474 351.232 165.155V154.848C351.232 154.529 351.104 154.223 350.878 153.997C350.652 153.772 350.345 153.645 350.025 153.645Z" fill="#8489B3"/>
<path d="M371.721 83.3618H361.388C361.069 83.3629 360.763 83.4902 360.538 83.7159C360.313 83.9415 360.186 84.247 360.186 84.5655V94.8764C360.186 95.1944 360.313 95.4994 360.538 95.7243C360.764 95.9492 361.069 96.0755 361.388 96.0756H371.721C372.04 96.0757 372.346 95.9496 372.572 95.7248C372.798 95.5 372.926 95.1949 372.927 94.8764V84.5655C372.926 84.2466 372.799 83.9409 372.573 83.7154C372.347 83.4899 372.04 83.3627 371.721 83.3618Z" fill="#E6E6E6"/>
<path d="M371.721 100.933H361.388C361.069 100.934 360.763 101.061 360.538 101.287C360.313 101.512 360.186 101.818 360.186 102.136V112.447C360.186 112.765 360.313 113.07 360.538 113.295C360.764 113.52 361.069 113.646 361.388 113.646H371.721C372.04 113.647 372.346 113.52 372.572 113.296C372.798 113.071 372.926 112.766 372.927 112.447V102.136C372.926 101.817 372.799 101.512 372.573 101.286C372.347 101.061 372.04 100.934 371.721 100.933Z" fill="#8489B3"/>
<path d="M371.721 118.503H361.388C361.069 118.505 360.763 118.632 360.538 118.858C360.313 119.083 360.186 119.389 360.186 119.707V130.014C360.186 130.171 360.217 130.328 360.277 130.474C360.337 130.62 360.425 130.752 360.537 130.864C360.649 130.976 360.781 131.065 360.927 131.125C361.073 131.186 361.23 131.217 361.388 131.217H371.721C372.041 131.217 372.347 131.09 372.573 130.865C372.8 130.639 372.927 130.333 372.927 130.014V119.707C372.926 119.388 372.799 119.083 372.573 118.857C372.347 118.631 372.04 118.504 371.721 118.503Z" fill="#8489B3"/>
<path d="M371.721 136.074H361.388C361.069 136.075 360.763 136.202 360.538 136.428C360.313 136.654 360.186 136.959 360.186 137.278V147.584C360.186 147.742 360.217 147.898 360.277 148.044C360.337 148.19 360.425 148.323 360.537 148.434C360.649 148.546 360.781 148.635 360.927 148.696C361.073 148.756 361.23 148.787 361.388 148.788H371.721C372.041 148.787 372.347 148.661 372.573 148.435C372.8 148.209 372.927 147.903 372.927 147.584V137.278C372.926 136.959 372.799 136.653 372.573 136.427C372.347 136.202 372.04 136.075 371.721 136.074Z" fill="#8489B3"/>
<path d="M371.721 153.645H361.388C361.23 153.645 361.073 153.676 360.927 153.737C360.781 153.797 360.649 153.886 360.537 153.998C360.425 154.11 360.337 154.242 360.277 154.388C360.217 154.534 360.186 154.691 360.186 154.848V165.155C360.186 165.312 360.217 165.469 360.277 165.615C360.337 165.761 360.425 165.893 360.537 166.005C360.649 166.117 360.781 166.206 360.927 166.266C361.073 166.327 361.23 166.358 361.388 166.358H371.721C372.041 166.358 372.347 166.231 372.573 166.006C372.8 165.78 372.927 165.474 372.927 165.155V154.848C372.927 154.529 372.8 154.223 372.573 153.997C372.347 153.772 372.041 153.645 371.721 153.645Z" fill="#E6E6E6"/>
<path d="M393.416 83.3618H383.083C382.764 83.3629 382.458 83.4902 382.233 83.7159C382.008 83.9415 381.881 84.247 381.881 84.5655V94.8764C381.882 95.1944 382.008 95.4994 382.234 95.7243C382.459 95.9492 382.764 96.0755 383.083 96.0756H393.416C393.735 96.0757 394.041 95.9496 394.267 95.7248C394.493 95.5 394.621 95.1949 394.622 94.8764V84.5655C394.621 84.2466 394.494 83.9409 394.268 83.7154C394.042 83.4899 393.735 83.3627 393.416 83.3618Z" fill="#E6E6E6"/>
<path d="M393.416 100.933H383.083C382.764 100.934 382.458 101.061 382.233 101.287C382.008 101.512 381.881 101.818 381.881 102.136V112.447C381.882 112.765 382.008 113.07 382.234 113.295C382.459 113.52 382.764 113.646 383.083 113.646H393.416C393.735 113.647 394.041 113.52 394.267 113.296C394.493 113.071 394.621 112.766 394.622 112.447V102.136C394.621 101.817 394.494 101.512 394.268 101.286C394.042 101.061 393.735 100.934 393.416 100.933Z" fill="#E6E6E6"/>
<path d="M393.416 118.503H383.083C382.764 118.505 382.458 118.632 382.233 118.858C382.008 119.083 381.881 119.389 381.881 119.707V130.014C381.881 130.171 381.912 130.328 381.972 130.474C382.032 130.62 382.121 130.752 382.232 130.864C382.344 130.976 382.476 131.065 382.622 131.125C382.768 131.186 382.925 131.217 383.083 131.217H393.416C393.736 131.217 394.042 131.09 394.269 130.865C394.495 130.639 394.622 130.333 394.622 130.014V119.707C394.621 119.388 394.494 119.083 394.268 118.857C394.042 118.631 393.735 118.504 393.416 118.503Z" fill="#8489B3"/>
<path d="M393.416 136.074H383.083C382.764 136.075 382.458 136.202 382.233 136.428C382.008 136.654 381.881 136.959 381.881 137.278V147.584C381.881 147.742 381.912 147.898 381.972 148.044C382.032 148.19 382.121 148.323 382.232 148.434C382.344 148.546 382.476 148.635 382.622 148.696C382.768 148.756 382.925 148.787 383.083 148.788H393.416C393.736 148.787 394.042 148.661 394.269 148.435C394.495 148.209 394.622 147.903 394.622 147.584V137.278C394.621 136.959 394.494 136.653 394.268 136.427C394.042 136.202 393.735 136.075 393.416 136.074Z" fill="#E6E6E6"/>
<path d="M393.416 153.645H383.083C382.925 153.645 382.768 153.676 382.622 153.737C382.476 153.797 382.344 153.886 382.232 153.998C382.121 154.11 382.032 154.242 381.972 154.388C381.912 154.534 381.881 154.69 381.881 154.848V165.155C381.881 165.312 381.912 165.469 381.972 165.615C382.032 165.761 382.121 165.893 382.232 166.005C382.344 166.117 382.476 166.206 382.622 166.266C382.768 166.327 382.925 166.358 383.083 166.358H393.416C393.736 166.358 394.042 166.231 394.269 166.006C394.495 165.78 394.622 165.474 394.622 165.155V154.848C394.622 154.529 394.495 154.223 394.269 153.997C394.042 153.772 393.736 153.645 393.416 153.645Z" fill="#E6E6E6"/>
<path d="M155.937 305.6H155.65L155.895 305.567L155.937 305.6Z" fill="#2F2E41"/>
<path d="M131.217 113.459C148.724 113.459 162.916 99.2967 162.916 81.8265C162.916 64.3563 148.724 50.1938 131.217 50.1938C113.71 50.1938 99.5176 64.3563 99.5176 81.8265C99.5176 99.2967 113.71 113.459 131.217 113.459Z" fill="#FFB6B6"/>
<path d="M158.977 58.6337C158.977 58.6337 167.267 42.8174 149.027 41.3795C149.027 41.3795 133.478 27.3034 117.628 38.8062C117.628 38.8062 108.983 38.8062 104.255 48.5687C104.255 48.5687 97.4558 45.9954 95.9616 52.8823C95.9616 52.8823 90.9863 67.2608 95.9616 80.2014C100.937 93.1421 102.59 94.5799 102.59 94.5799C102.59 94.5799 94.4141 67.4491 114.314 66.0113C134.214 64.5734 156.482 52.1634 158.141 67.9796C159.799 83.7959 162.295 87.693 162.295 87.693C162.295 87.693 178.046 65.104 158.977 58.6337Z" fill="#2F2E41"/>
<path d="M213.215 159.784L213.113 160.321L211.967 166.358L204.047 208.12L203.579 210.579L202.595 215.778L201.25 222.871L198.266 238.59L197.413 243.095L197.092 244.785L196.981 245.378L196.095 250.04L195.826 251.447L193.664 267.435L191.775 281.366L198.095 287.672L194.327 291.432L191.854 305.567L191.859 305.599H90.9321C86.8492 302.96 82.825 300.239 78.8597 297.437L79.6902 291.233C79.6902 291.233 82.5482 280.153 81.3464 278.829C80.1495 277.505 77.5234 275.139 77.5234 275.139L80.8315 267.435L81.2908 266.365L80.5206 250.424L80.5021 250.04L80.2469 244.785L80.2144 244.109L80.1634 243.095L79.1844 222.871L79.1659 222.538L78.869 216.408L78.5905 210.579L78.4699 208.12L77.2776 183.522L76.4702 166.817L75.765 152.274L78.5998 151.316L108.92 141.033L121.48 124.74L147.62 124.934L160.416 125.031L181.768 144.792L186.625 147.107L186.663 147.126L190.147 148.788L198.981 152.996L208.321 157.45L213.113 159.733L213.215 159.784Z" fill="#B1B1B1"/>
<path d="M124.858 258.143C122.942 258.884 120.887 259.196 118.838 259.059C116.788 258.921 114.794 258.336 112.995 257.346C111.196 256.356 109.637 254.984 108.427 253.328C107.217 251.671 106.385 249.77 105.991 247.758L56.5513 240.759L73.7379 221.358L118.052 230.98C121.483 230.543 124.955 231.377 127.811 233.324C130.666 235.272 132.707 238.196 133.546 241.545C134.385 244.893 133.963 248.432 132.362 251.491C130.761 254.551 128.091 256.917 124.858 258.143V258.143Z" fill="#FFB6B6"/>
<path d="M102.814 222.872C101.898 221.713 100.602 220.914 99.1536 220.617L78.8689 216.408L76.7857 215.978C75.5751 215.725 74.4314 215.221 73.4296 214.497C72.4277 213.774 71.5904 212.847 70.9722 211.778C70.3309 210.656 69.943 209.408 69.8354 208.121C69.7388 206.95 69.8792 205.772 70.2484 204.657L77.2775 183.522L81.8383 169.808C82.391 168.154 82.7172 166.433 82.808 164.692C83.0621 159.873 81.5681 155.125 78.5998 151.316C75.9901 147.968 72.3705 145.547 68.2758 144.409C64.1811 143.272 59.8284 143.479 55.8607 145C55.7447 145.042 55.6241 145.088 55.5081 145.135C52.6627 146.269 50.1206 148.047 48.0825 150.33C46.0445 152.613 44.5664 155.337 43.7651 158.288L38.8099 176.276L28.5887 213.357C27.5655 217.072 27.3588 220.964 27.9827 224.767C28.6067 228.569 30.0465 232.192 32.2036 235.387C34.3608 238.583 37.1844 241.276 40.4811 243.281C43.7778 245.287 47.4699 246.558 51.3046 247.007L80.5206 250.424L94.0406 252.008C95.604 252.195 97.1808 251.788 98.4568 250.867C99.7328 249.947 100.614 248.58 100.926 247.04C100.948 246.956 100.965 246.871 100.977 246.785L101.302 244.785L104.053 227.941L104.081 227.77C104.224 226.91 104.186 226.031 103.967 225.187C103.749 224.343 103.356 223.555 102.814 222.872Z" fill="#B1B1B1"/>
<path d="M156.349 258.683C158.35 259.146 160.429 259.167 162.438 258.742C164.448 258.317 166.34 257.458 167.981 256.224C169.622 254.991 170.972 253.414 171.935 251.603C172.899 249.793 173.454 247.794 173.56 245.747L221.516 231.86L201.76 215.072L159.248 230.833C155.79 230.883 152.47 232.198 149.918 234.527C147.367 236.857 145.76 240.04 145.402 243.473C145.045 246.906 145.962 250.35 147.979 253.153C149.997 255.957 152.975 257.924 156.349 258.683V258.683Z" fill="#FFB6B6"/>
<path d="M245.327 200.796L222.518 148.413C220.652 144.112 217.32 140.61 213.113 138.528C211.813 137.889 210.447 137.392 209.04 137.046C208.822 136.991 208.603 136.94 208.385 136.898C205.401 136.248 202.306 136.305 199.347 137.065C196.643 137.758 194.116 139.012 191.93 140.746C189.745 142.48 187.95 144.653 186.662 147.126C186.648 147.146 186.636 147.168 186.625 147.191C185.188 149.966 184.423 153.04 184.393 156.164C184.363 159.288 185.069 162.376 186.454 165.178L186.737 165.743L202.855 198.046C203.405 199.151 203.715 200.359 203.765 201.591C203.814 202.824 203.602 204.053 203.142 205.198C202.682 206.343 201.985 207.378 201.096 208.235C200.207 209.093 199.146 209.752 197.983 210.172L196.851 210.579L176.492 217.918C174.965 218.462 173.708 219.576 172.987 221.026C172.266 222.476 172.137 224.148 172.627 225.691L172.678 225.853L178.385 244.077C178.413 244.16 178.441 244.244 178.473 244.327C178.524 244.484 178.586 244.637 178.659 244.785C179.266 246.143 180.338 247.24 181.682 247.879C183.027 248.518 184.556 248.657 185.994 248.272L196.981 245.378L199.222 244.785L227.594 237.308C231.327 236.323 234.803 234.546 237.783 232.096C240.764 229.647 243.179 226.583 244.863 223.116C246.547 219.649 247.46 215.859 247.54 212.007C247.62 208.154 246.865 204.33 245.327 200.796L245.327 200.796Z" fill="#B1B1B1"/>
<path d="M20.8312 244.785C27.4058 252.787 34.4963 260.353 42.0577 267.435H251.757C253.777 267.438 255.714 268.241 257.142 269.667C258.57 271.093 259.374 273.026 259.375 275.042L259.677 328.069C272.577 322.154 284.659 314.602 295.621 305.6C298.664 303.104 301.613 300.5 304.468 297.789C306.338 296.02 308.163 294.208 309.943 292.353C323.289 278.48 334.095 262.38 341.874 244.785H20.8312Z" fill="#1C1D26"/>
<path d="M309.943 292.354C308.166 294.21 306.341 296.022 304.469 297.789H259.83V292.354H309.943Z" fill="white"/>
<path d="M212.798 118.503C212.577 118.097 212.251 117.758 211.853 117.522C211.455 117.285 211.001 117.161 210.538 117.161H58.4311C57.7491 117.162 57.0957 117.434 56.6139 117.915C56.1321 118.397 55.8613 119.05 55.8607 119.73V210.579H213.113V119.73C213.116 119.301 213.007 118.878 212.798 118.503Z" fill="#1C1D26"/>
<path d="M55.723 208.119V219.33C55.723 219.795 55.8148 220.255 55.993 220.684C56.1712 221.114 56.4324 221.504 56.7618 221.832C57.0911 222.161 57.482 222.422 57.9123 222.6C58.3426 222.778 58.8038 222.869 59.2695 222.869H117.31V244.994H116.539C116.479 244.994 116.419 245.006 116.363 245.029C116.307 245.052 116.256 245.086 116.214 245.129C116.171 245.171 116.137 245.222 116.114 245.278C116.09 245.334 116.079 245.393 116.079 245.454V246.993C116.079 247.053 116.09 247.113 116.114 247.169C116.137 247.224 116.171 247.275 116.213 247.318C116.256 247.36 116.307 247.394 116.363 247.417C116.419 247.44 116.479 247.452 116.539 247.452H152.57C152.631 247.452 152.691 247.44 152.747 247.417C152.802 247.394 152.853 247.36 152.896 247.318C152.939 247.275 152.973 247.224 152.996 247.169C153.019 247.113 153.031 247.053 153.031 246.993V245.454C153.031 245.393 153.019 245.334 152.996 245.278C152.973 245.222 152.939 245.171 152.896 245.129C152.853 245.086 152.802 245.052 152.747 245.029C152.691 245.006 152.631 244.994 152.57 244.994H151.799V222.869H209.84C210.306 222.869 210.767 222.778 211.197 222.6C211.628 222.422 212.018 222.161 212.348 221.832C212.677 221.504 212.938 221.114 213.117 220.684C213.295 220.255 213.387 219.795 213.387 219.33V208.119H55.723Z" fill="#1C1D26"/>
<path d="M132.65 175.943C140.672 175.943 147.175 169.453 147.175 161.448C147.175 153.443 140.672 146.953 132.65 146.953C124.628 146.953 118.125 153.443 118.125 161.448C118.125 169.453 124.628 175.943 132.65 175.943Z" fill="#8489B3"/>
<path d="M169.658 80.0979H167.338C167.338 62.5967 149.981 51.1284 132.471 51.1191C129.924 51.1117 127.383 51.3583 124.885 51.8553C122.074 52.4155 119.155 53.0868 116.288 53.9619C104.981 57.4205 94.4954 64.1061 94.4954 80.0979C94.493 83.2036 94.889 86.2969 95.6739 89.3023L93.4283 89.8856C92.5953 86.6895 92.1744 83.4004 92.1755 80.0979C92.1755 66.1247 97.9241 56.5269 107.853 50.8043C113.073 47.7948 119.443 45.8548 126.741 44.9103C129.778 44.5071 132.849 44.4141 135.904 44.6325C156.041 46.0771 169.658 61.4855 169.658 80.0979Z" fill="#8489B3"/>
<path d="M173.523 81.3802L172.609 74.639C172.384 72.9365 171.562 71.3686 170.289 70.2127C169.472 69.4592 168.494 68.9009 167.429 68.5801C166.364 68.2592 165.24 68.1842 164.142 68.3608L162.689 68.5598C162.292 68.612 161.909 68.7425 161.562 68.9435C161.216 69.1446 160.913 69.4124 160.671 69.7312C160.427 70.049 160.249 70.4119 160.146 70.7989C160.043 71.1859 160.018 71.5893 160.073 71.986L162.184 87.5148C162.271 88.1478 162.555 88.7374 162.996 89.2002C163.438 89.663 164.013 89.9756 164.643 90.0937C164.829 90.131 165.019 90.1496 165.209 90.1493C165.345 90.1493 165.482 90.14 165.617 90.1215L167.241 89.9039C168.231 89.7728 169.184 89.4411 170.041 88.9291C170.898 88.4172 171.64 87.7358 172.224 86.9268C172.349 86.7509 172.47 86.5703 172.581 86.3851C173.451 84.8702 173.783 83.1067 173.523 81.3802Z" fill="#8489B3"/>
<path d="M161.752 68.8423C161.326 69.0488 160.956 69.3535 160.671 69.7312C160.427 70.049 160.249 70.4119 160.146 70.7989C160.043 71.1859 160.018 71.5894 160.073 71.986L162.184 87.5148C162.271 88.1478 162.555 88.7374 162.996 89.2002C163.438 89.663 164.013 89.9756 164.643 90.0937L161.752 68.8423Z" fill="white"/>
<path d="M173.523 81.3803L172.609 74.6391C172.383 72.9367 171.562 71.3688 170.289 70.2129L172.391 85.663C172.422 85.911 172.486 86.1539 172.581 86.3853C173.451 84.8703 173.783 83.1069 173.523 81.3803Z" fill="#1C1D26"/>
<path d="M166.299 86.2372C166.934 86.1513 167.253 84.6438 167.012 82.8701C166.771 81.0964 166.061 79.7282 165.426 79.8141C164.791 79.9001 164.472 81.4076 164.713 83.1813C164.954 84.955 165.664 86.3231 166.299 86.2372Z" fill="#1C1D26"/>
<path d="M164.907 77.9037C165.542 77.8178 165.861 76.3103 165.62 74.5366C165.379 72.7629 164.669 71.3947 164.034 71.4806C163.399 71.5666 163.08 73.0741 163.321 74.8478C163.562 76.6215 164.272 77.9897 164.907 77.9037Z" fill="#1C1D26"/>
<path d="M173.723 81.1444C174.357 81.0585 174.677 79.551 174.435 77.7773C174.194 76.0036 173.484 74.6354 172.849 74.7214C172.215 74.8073 171.896 76.3148 172.137 78.0885C172.378 79.8622 173.088 81.2304 173.723 81.1444Z" fill="#1C1D26"/>
<path d="M132.471 51.1191C129.924 51.1117 127.383 51.3583 124.885 51.8553C122.074 52.4155 119.155 53.0868 116.288 53.9619C111.811 53.7443 108.517 52.5868 107.853 50.8043C113.073 47.7948 119.443 45.8548 126.741 44.9103C129.778 44.5071 132.849 44.4141 135.905 44.6325C136.228 44.8218 136.508 45.0772 136.725 45.3821C136.943 45.6869 137.093 46.0342 137.166 46.4012C137.385 48.0124 135.543 49.7255 132.471 51.1191Z" fill="#1C1D26"/>
<path d="M102.851 96.1638L99.2789 81.3434C99.1515 80.8087 98.8686 80.3235 98.4658 79.9487C98.063 79.5739 97.5581 79.3262 97.0147 79.2367C96.8612 79.2129 96.7061 79.2005 96.5508 79.1997C96.3319 79.2005 96.1139 79.2269 95.9012 79.2784L94.5186 79.6118C92.7384 80.0414 91.2017 81.1582 90.2458 82.7172C89.2899 84.2761 88.9927 86.1498 89.4196 87.9271L91.0203 94.5758C91.3857 96.141 92.2562 97.5432 93.4979 98.5668C93.6991 98.7289 93.9098 98.8788 94.1289 99.0159C94.9066 99.5023 95.7741 99.8283 96.6801 99.9746C97.5862 100.121 98.5124 100.085 99.4042 99.8678L100.782 99.5345C101.147 99.4496 101.489 99.2904 101.789 99.0668C102.235 98.7426 102.574 98.2935 102.763 97.7766C102.952 97.2597 102.983 96.6983 102.851 96.1638Z" fill="#8489B3"/>
<path d="M95.3619 93.4062C95.9847 93.2566 96.1494 91.7246 95.7298 89.9844C95.3101 88.2441 94.465 86.9546 93.8422 87.1042C93.2194 87.2538 93.0547 88.7858 93.4743 90.526C93.894 92.2663 94.7391 93.5558 95.3619 93.4062Z" fill="#1C1D26"/>
<path d="M90.7223 94.7954C91.3451 94.6458 91.5098 93.1138 91.0901 91.3736C90.6705 89.6333 89.8254 88.3438 89.2026 88.4934C88.5797 88.6429 88.415 90.1749 88.8347 91.9152C89.2543 93.6554 90.0994 94.9449 90.7223 94.7954Z" fill="#1C1D26"/>
<path d="M103.079 96.1082L99.5062 81.2877C99.367 80.7092 99.0598 80.1845 98.6233 79.7793C98.1867 79.3741 97.64 79.1064 97.0518 79.0098L101.928 99.2519C102.41 98.8999 102.776 98.4135 102.981 97.854C103.186 97.2945 103.22 96.687 103.079 96.1082Z" fill="white"/>
<path d="M90.2268 84.9918C90.1282 84.5796 89.9432 84.193 89.684 83.8574C89.1818 85.1553 89.0895 86.5754 89.4195 87.9271L91.0202 94.5757C91.3857 96.141 92.2561 97.5432 93.4978 98.5668L90.2268 84.9918Z" fill="#1C1D26"/>
</g>
<defs>
<clipPath id="clip0_4447_2">
<rect width="394.622" height="343" fill="white"/>
</clipPath>
</defs>
</svg>
