<svg width="293" height="162" viewBox="0 0 293 162" fill="none" xmlns="http://www.w3.org/2000/svg">
  <g clip-path="url(#clip0_4615_90)">
    <path d="M44.8921 137.792C38.4011 142.618 36.5615 151.109 36.5615 151.109C36.5615 151.109 45.2458 151.776 51.7368 146.95C58.2278 142.124 60.0674 133.632 60.0674 133.632C60.0674 133.632 51.3831 132.966 44.8921 137.792Z" fill="#F1F1F1"/>
    <path d="M47.5959 140.057C44.4763 147.509 36.6633 151.349 36.6633 151.349C36.6633 151.349 33.9082 143.107 37.0278 135.656C40.1474 128.205 47.9604 124.365 47.9604 124.365C47.9604 124.365 50.7155 132.606 47.5959 140.057Z" fill="#F1F1F1"/>
    <path d="M234.347 118.517C233.657 113.883 233.475 109.188 233.803 104.515L234.347 96.7817C231.352 102.724 232.029 110.545 234.347 118.517V118.517Z" fill="#CACACA"/>
    <path d="M236.681 119.81C236.349 117.045 236.262 114.256 236.42 111.476L236.681 106.873C235.241 110.41 235.566 115.065 236.681 119.81Z" fill="#CACACA"/>
    <path d="M247.06 125.503V128.091C247.058 128.296 246.976 128.493 246.83 128.639C246.685 128.784 246.487 128.866 246.281 128.867H244.984C244.95 128.867 244.916 128.874 244.885 128.886C244.853 128.899 244.825 128.919 244.8 128.943C244.776 128.967 244.757 128.995 244.744 129.027C244.731 129.058 244.725 129.092 244.725 129.126V150.343C244.724 150.549 244.641 150.746 244.496 150.891C244.35 151.036 244.153 151.118 243.946 151.119H228.122C227.915 151.119 227.717 151.037 227.571 150.892C227.425 150.746 227.343 150.549 227.343 150.343V129.126C227.343 129.057 227.316 128.992 227.267 128.943C227.218 128.895 227.153 128.867 227.084 128.867H225.527C225.321 128.867 225.123 128.785 224.977 128.64C224.831 128.494 224.749 128.297 224.749 128.091V125.503C224.749 125.401 224.769 125.3 224.808 125.206C224.847 125.112 224.904 125.026 224.977 124.954C225.049 124.882 225.135 124.825 225.229 124.786C225.324 124.747 225.425 124.727 225.527 124.727H246.281C246.488 124.728 246.685 124.81 246.831 124.955C246.977 125.101 247.059 125.298 247.06 125.503V125.503Z" fill="#F2F2F2"/>
    <path d="M244.748 129.411H227.367V130.187H244.748V129.411Z" fill="#E6E6E6"/>
    <path d="M244.725 140.833C238.909 143.234 233.029 143.26 227.084 140.833V135.364C232.807 133.447 239.002 133.447 244.725 135.364V140.833Z" fill="#E6E6E6"/>
    <path d="M147.3 57.2173C160.283 57.2173 170.809 46.7191 170.809 33.769C170.809 20.8189 160.283 10.3208 147.3 10.3208C134.316 10.3208 123.79 20.8189 123.79 33.769C123.79 46.7191 134.316 57.2173 147.3 57.2173Z" fill="#FEB8B8"/>
    <path d="M169.258 13.5398C165.743 7.84711 160.241 3.65235 153.811 1.76305L150.925 3.86372V1.13606C149.381 0.900334 147.818 0.809525 146.257 0.864829L143.767 3.11197V1.05152C140.08 1.50846 136.528 2.72234 133.335 4.61661C130.142 6.51088 127.377 9.04445 125.215 12.0576C119.808 19.8328 118.895 30.6499 124.214 38.4875C125.673 34.0122 127.446 29.8131 128.906 25.3383C130.053 25.4943 131.216 25.4999 132.365 25.355L134.142 21.221L134.638 25.1801C140.144 24.7018 148.31 23.6513 153.529 22.6888L153.022 19.6515L156.058 22.1753C157.657 21.8083 158.607 21.4751 158.528 21.2206C162.41 27.4625 167.161 31.4491 171.043 37.691C172.517 28.8896 174.214 21.5714 169.258 13.5398Z" fill="#2F2E41"/>
    <path d="M197.862 94.0669C197.054 89.216 196.22 84.2719 193.959 79.9019C192.474 77.0396 190.115 74.3119 186.936 73.746C186.31 73.6903 185.695 73.5482 185.108 73.3237C184.176 72.8762 171.659 65.7492 169.669 64.5079C167.961 63.4423 165.265 61.4691 163.905 61.4691C162.537 61.4391 157.292 62.6567 136.82 61.0605C136.82 61.0605 131.196 63.2715 126.844 65.9525C126.778 65.9091 105.596 77.2543 104.8 77.2245C103.293 77.1612 101.892 78.1236 101.028 79.3356C100.164 80.5475 99.7592 82.0478 99.335 83.4985C103.962 93.7749 108.195 104.064 112.822 114.341C113.038 114.728 113.153 115.163 113.156 115.607C113.063 116.067 112.866 116.499 112.581 116.872C110.312 120.508 110.384 125.08 110.632 129.353C110.88 133.626 111.186 138.139 109.272 141.969C108.751 143.02 108.074 143.983 107.579 145.034C106.419 147.415 106 155.032 106.677 157.591L191.552 160.016C189.727 155.013 197.862 94.0669 197.862 94.0669Z" fill="#6C63FF"/>
    <path d="M91.9986 114.796C91.8292 116.018 91.8122 117.256 91.9478 118.483L93.1643 135.907C93.2785 137.549 93.3909 139.188 93.5455 140.826C93.8373 144.005 94.2734 147.159 94.8145 150.309C94.8267 150.756 95.0163 151.18 95.3417 151.488C95.667 151.796 96.1016 151.962 96.5499 151.951C101.905 153.081 107.437 153.036 112.902 152.728C121.242 152.264 142.577 151.385 143.881 149.696C145.184 148.008 144.425 145.276 142.725 143.91C141.025 142.545 112.87 139.215 112.87 139.215C113.145 137.041 113.975 134.993 114.763 132.929C116.177 129.267 117.497 125.485 117.523 121.563C117.548 117.64 116.066 113.516 112.845 111.269C110.195 109.424 106.783 109.082 103.554 109.158C101.204 109.225 97.1445 108.664 94.9985 109.58C93.3003 110.326 92.3159 113.138 91.9986 114.796Z" fill="#FBBEBE"/>
    <path d="M99.09 83.8114C98.6777 84.242 98.358 84.7521 98.1505 85.3104C94.7288 93.0019 92.7077 101.24 92.1819 109.638C92.1911 110.047 92.0965 110.453 91.9068 110.816C91.7197 111.058 91.5115 111.282 91.2845 111.487C91.0867 111.721 90.9369 111.992 90.8439 112.283C90.7508 112.575 90.7163 112.882 90.7423 113.187C90.7682 113.492 90.8541 113.789 90.9951 114.061C91.1361 114.333 91.3294 114.574 91.564 114.772C91.6025 114.804 91.6419 114.835 91.6824 114.865C92.3809 113.554 94.0528 113.125 95.539 113.011C102.655 112.45 109.605 115.752 116.742 115.503C116.239 113.767 115.515 112.1 115.104 110.343C113.288 102.545 117.818 94.0548 115.041 86.5436C114.486 85.0405 113.559 83.5628 112.099 82.9041C111.494 82.6609 110.861 82.4938 110.215 82.4069C108.412 82.0818 104.822 80.6927 103.078 81.2501C102.434 81.4571 102.181 82.0606 101.647 82.4254C100.837 82.9417 99.7617 83.1315 99.09 83.8114Z" fill="#6C63FF"/>
    <path d="M197.912 109.58C195.766 108.664 191.707 109.225 189.357 109.158C186.128 109.082 182.716 109.424 180.066 111.269C176.844 113.516 175.363 117.64 175.388 121.563C175.414 125.485 176.734 129.267 178.148 132.929C178.936 134.993 179.766 137.041 180.041 139.215C180.041 139.215 151.886 142.545 150.186 143.91C148.486 145.276 147.727 148.008 149.03 149.696C150.334 151.385 191.006 153.081 196.361 151.951C196.809 151.962 197.244 151.796 197.569 151.488C197.895 151.18 198.084 150.756 198.096 150.309C198.638 147.159 199.074 144.005 199.365 140.826C199.52 139.188 199.632 137.549 199.747 135.907L200.963 118.483C201.099 117.256 201.082 116.018 200.912 114.797C200.595 113.138 199.611 110.326 197.912 109.58Z" fill="#FBBEBE"/>
    <path d="M191.264 82.4254C190.73 82.0606 190.476 81.4571 189.833 81.2501C188.089 80.6927 184.499 82.0818 182.696 82.4069C182.05 82.4938 181.417 82.6608 180.812 82.9041C179.352 83.5628 178.425 85.0405 177.87 86.5436C175.093 94.0548 179.623 102.545 177.807 110.343C177.396 112.1 176.672 113.767 176.168 115.503C183.305 115.752 190.256 112.45 197.372 113.011C198.858 113.125 200.53 113.554 201.228 114.865C201.269 114.835 201.308 114.804 201.347 114.772C201.581 114.574 201.775 114.333 201.916 114.061C202.057 113.789 202.143 113.492 202.169 113.187C202.195 112.882 202.16 112.575 202.067 112.283C201.974 111.992 201.824 111.721 201.626 111.487C201.399 111.282 201.191 111.058 201.004 110.816C200.814 110.453 200.72 110.047 200.729 109.638C200.203 101.24 198.182 93.0019 194.76 85.3104C194.553 84.7521 194.233 84.242 193.821 83.8114C193.149 83.1315 192.074 82.9417 191.264 82.4254Z" fill="#6C63FF"/>
    <path d="M140.337 152.783C143.841 152.783 146.682 149.949 146.682 146.454C146.682 142.959 143.841 140.125 140.337 140.125C136.833 140.125 133.992 142.959 133.992 146.454C133.992 149.949 136.833 152.783 140.337 152.783Z" fill="#FBBEBE"/>
    <path d="M154.387 152.783C157.891 152.783 160.732 149.949 160.732 146.454C160.732 142.959 157.891 140.125 154.387 140.125C150.882 140.125 148.042 142.959 148.042 146.454C148.042 149.949 150.882 152.783 154.387 152.783Z" fill="#FBBEBE"/>
    <path d="M193.554 160.715H106.38C105.363 160.714 104.387 160.31 103.667 159.592C102.948 158.875 102.543 157.901 102.542 156.886V104.138C102.543 103.123 102.948 102.15 103.667 101.432C104.387 100.714 105.363 100.311 106.38 100.31H193.554C194.572 100.311 195.548 100.714 196.267 101.432C196.987 102.15 197.392 103.123 197.393 104.138V156.886C197.392 157.901 196.987 158.875 196.267 159.592C195.548 160.31 194.572 160.714 193.554 160.715Z" fill="#3F3D56"/>
    <path d="M149.756 133.046C151.159 133.046 152.296 131.911 152.296 130.512C152.296 129.113 151.159 127.979 149.756 127.979C148.353 127.979 147.216 129.113 147.216 130.512C147.216 131.911 148.353 133.046 149.756 133.046Z" fill="white"/>
    <path d="M292.609 150.076H0.301758V159.035H17.5914V161.117H275.326V159.035H292.609V150.076Z" fill="#F1F1F1"/>
    <path d="M125.681 42.5087C121.904 42.5087 118.841 39.2063 118.841 35.1326V31.4445C118.841 27.3708 121.904 24.0684 125.681 24.0684V42.5087H125.681Z" fill="#6C63FF"/>
    <path d="M169.337 24.0684C173.115 24.0684 176.177 27.3708 176.177 31.4445V35.1326C176.177 39.2063 173.115 42.5087 169.337 42.5087V24.0684Z" fill="#6C63FF"/>
    <path d="M172.922 32.0241H171.836C171.836 17.1819 160.639 5.10683 146.876 5.10683C133.113 5.10683 121.916 17.1819 121.916 32.0241H120.831C120.831 16.5366 132.515 3.93652 146.876 3.93652C161.238 3.93653 172.922 16.5366 172.922 32.0241Z" fill="#6C63FF"/>
  </g>
  <defs>
    <clipPath id="clip0_4615_90">
      <rect width="292.307" height="160.268" fill="white" transform="translate(0.301758 0.849121)"/>
    </clipPath>
  </defs>
</svg>